<svg xmlns="http://www.w3.org/2000/svg" viewBox="0 0 500 500"><g id="freepik--background-complete--inject-75"><path d="M404.79,66.69l13.13-.28,6.66-.12c2.22,0,4.46,0,6.69-.05h.45v.45l0,11.19v.5h-.5L418,78.31c-4.41,0-8.82-.11-13.24-.16h-.27v-.26c0-1.9.09-3.79.13-5.66Zm0,0,.14,5.65c.05,1.86.12,3.7.14,5.54l-.28-.28c4.42,0,8.83-.16,13.24-.16l13.24-.06-.5.5.06-11.19.44.44c-2.18,0-4.35,0-6.54,0L418.15,67Z" style="fill:#ebebeb"></path><path d="M419.56,52.58l13.13-.28,6.66-.12c2.23,0,4.46,0,6.69,0h.45v.45l.05,11.19v.5H446L432.8,64.2c-4.41,0-8.82-.11-13.24-.16h-.27v-.27c0-1.9.09-3.79.13-5.66Zm0,0,.15,5.65c0,1.86.11,3.7.13,5.54l-.28-.28c4.42-.05,8.83-.16,13.24-.16L446,63.27l-.49.5.05-11.19L446,53c-2.18,0-4.35,0-6.54-.05l-6.58-.12Z" style="fill:#ebebeb"></path><path d="M390,52.58l13.13-.28,6.66-.12c2.22,0,4.46,0,6.69,0h.44v.45L417,63.77v.5h-.5l-13.24-.06c-4.41,0-8.83-.11-13.24-.16h-.27v-.27c0-1.9.08-3.79.13-5.66Zm0,0,.14,5.65c0,1.86.11,3.7.13,5.54l-.27-.28c4.41-.05,8.83-.16,13.24-.16l13.24-.06-.5.5.06-11.19.44.44c-2.18,0-4.36,0-6.54-.05l-6.58-.12Z" style="fill:#ebebeb"></path><path d="M54,46.1l13.12-.28,6.66-.11c2.23-.05,4.46,0,6.7-.05h.44v.45l.06,11.19v.5h-.5L67.2,57.73c-4.42,0-8.83-.11-13.24-.17h-.28v-.27c0-1.9.09-3.78.13-5.65Zm0,0,.14,5.66c0,1.86.11,3.7.13,5.53L54,57c4.41-.05,8.82-.16,13.24-.16l13.24-.07-.5.5L80,46.1l.45.45c-2.19,0-4.36,0-6.55-.06l-6.58-.11Z" style="fill:#ebebeb"></path><path d="M68.73,331.75l13.12-.28,6.66-.11c2.23-.05,4.47,0,6.7-.06h.44v.45l.06,11.19v.5h-.5L82,343.37c-4.42,0-8.83-.11-13.24-.16h-.28v-.27c0-1.9.09-3.79.13-5.66Zm0,0,.14,5.65c0,1.86.11,3.71.13,5.54l-.27-.28c4.41-.05,8.82-.15,13.24-.16l13.24-.06-.5.5.05-11.19.45.44c-2.18,0-4.36,0-6.55-.05L82.08,332Z" style="fill:#ebebeb"></path><path d="M54,317.64l13.12-.28,6.66-.11c2.23-.05,4.46,0,6.7-.06h.44v.45l.06,11.19v.5h-.5l-13.24-.07c-4.42,0-8.83-.11-13.24-.16h-.28v-.27c0-1.9.09-3.79.13-5.66Zm0,0,.14,5.65c0,1.86.11,3.71.13,5.54l-.27-.28c4.41-.05,8.82-.15,13.24-.16l13.24-.06-.5.5,0-11.19.45.44c-2.19,0-4.36,0-6.55-.05l-6.58-.11Z" style="fill:#ebebeb"></path><path d="M419.56,331.74l13.13-.28,6.66-.12c2.23,0,4.46,0,6.69,0h.45v.45l.05,11.19v.5H446l-13.24-.06c-4.41,0-8.82-.11-13.24-.16h-.27v-.27c0-1.9.09-3.79.13-5.66Zm0,0,.15,5.65c0,1.86.11,3.7.13,5.54l-.28-.28c4.42,0,8.83-.16,13.24-.16l13.24-.06-.49.5.05-11.19.44.44c-2.18,0-4.35,0-6.54-.05l-6.58-.12Z" style="fill:#ebebeb"></path><path d="M402.23,183.64l-13.12.28-6.66.11c-2.23.05-4.47,0-6.7.05h-.44v-.45l-.05-11.19V172h.5L389,172c4.41,0,8.83.11,13.24.17h.28v.27c0,1.9-.08,3.78-.13,5.65Zm0,0-.14-5.66c0-1.86-.11-3.7-.13-5.53l.27.27c-4.41.05-8.83.16-13.24.16l-13.24.07.5-.5-.05,11.19-.45-.45c2.18,0,4.36,0,6.55.06l6.58.11Z" style="fill:#ebebeb"></path><path d="M387.46,197.75l-13.13.28-6.66.11c-2.22.05-4.46,0-6.69.05h-.44v-.45l0-11.19v-.5h.5l13.24.06c4.41,0,8.83.11,13.24.16h.28v.27c0,1.9-.08,3.78-.13,5.65Zm0,0-.14-5.66c-.05-1.86-.11-3.7-.13-5.53l.27.27c-4.41,0-8.83.16-13.24.16l-13.24.07.5-.5-.06,11.19-.44-.45c2.18,0,4.36,0,6.54.06l6.58.11Z" style="fill:#ebebeb"></path><polygon points="49.09 114.07 141.13 114.07 141.13 65.77 49.09 65.77 49.09 65.77 49.09 114.07 49.09 114.07" style="fill:#ebebeb"></polygon><polygon points="155.38 114.07 141.13 114.07 141.13 99.24 155.38 114.07" style="fill:#ebebeb"></polygon><rect x="57.9" y="74.12" width="74.42" height="0.92" style="fill:#fff"></rect><rect x="57.9" y="79.08" width="46.15" height="0.92" style="fill:#fff"></rect><rect x="57.9" y="88.99" width="63.22" height="0.92" style="fill:#fff"></rect><rect x="57.9" y="93.94" width="74.42" height="0.92" style="fill:#fff"></rect><rect x="57.9" y="98.9" width="74.42" height="0.92" style="fill:#fff"></rect><rect x="57.9" y="103.86" width="36.69" height="0.92" style="fill:#fff"></rect><rect x="358.87" y="146.48" width="92.04" height="42.6" style="fill:#dbdbdb"></rect><polygon points="344.63 189.08 358.87 189.08 358.87 174.25 344.63 189.08" style="fill:#dbdbdb"></polygon><rect x="367.86" y="168.73" width="66.85" height="0.92" style="fill:#fff"></rect><rect x="367.86" y="173.68" width="56.37" height="0.92" style="fill:#fff"></rect><rect x="367.86" y="158.81" width="59.43" height="0.92" style="fill:#fff"></rect><rect x="367.86" y="153.86" width="72.73" height="0.92" style="fill:#fff"></rect><rect x="367.86" y="178.64" width="60.57" height="0.92" style="fill:#fff"></rect><rect x="86.42" y="136.05" width="92.04" height="28.07" style="fill:#dbdbdb"></rect><polygon points="72.17 164.12 86.42 164.12 86.42 149.28 72.17 164.12" style="fill:#dbdbdb"></polygon><rect x="95.4" y="143.76" width="66.85" height="0.92" style="fill:#fff"></rect><rect x="95.4" y="148.72" width="56.37" height="0.92" style="fill:#fff"></rect><rect x="95.4" y="153.68" width="60.57" height="0.92" style="fill:#fff"></rect><path d="M81,211.35a18.4,18.4,0,1,0-2.57-21.47A18.25,18.25,0,0,0,81,211.35Z" style="fill:#ebebeb"></path><path d="M89.63,195.33a5.6,5.6,0,1,0,6.88-3.9A5.6,5.6,0,0,0,89.63,195.33Z" style="fill:#fff"></path><path d="M81.58,209.13,81,211.35a18.38,18.38,0,0,0,18.65,5.16l.62-2.22a9.68,9.68,0,1,0-18.65-5.16Z" style="fill:#fff"></path><path d="M390.51,349.83a22.8,22.8,0,0,0,28.27-23.66,22.79,22.79,0,1,0-28.27,23.66Z" style="fill:#ebebeb"></path><path d="M388.65,327.35a6.94,6.94,0,1,0,4.51-8.71A6.93,6.93,0,0,0,388.65,327.35Z" style="fill:#fff"></path><path d="M389.64,347.1l.87,2.73a22.76,22.76,0,0,0,22.83-7.28l-.86-2.71a12,12,0,1,0-22.84,7.26Z" style="fill:#fff"></path><path d="M387.7,110.42a12.76,12.76,0,0,1-1.79,4.58,8,8,0,0,1-4.27,3c-.61.22-1.34.46-2.22.72a16.15,16.15,0,0,0-2.6,1,8.68,8.68,0,0,0-2.31,1.65,4.8,4.8,0,0,0-1.31,2.51,4.52,4.52,0,0,0,.05,2.08,4.6,4.6,0,0,0,.85,1.68,4.72,4.72,0,0,0,1.47,1.21,6.63,6.63,0,0,0,1.85.67,5.83,5.83,0,0,0,2.24,0,7.4,7.4,0,0,0,1.95-.69,8.94,8.94,0,0,0,1.68-1.12c.51-.45,1-.87,1.34-1.28l4.06,4.15a10.82,10.82,0,0,1-2.44,2.6,11.58,11.58,0,0,1-3.07,1.67,12.53,12.53,0,0,1-3.47.72,14.17,14.17,0,0,1-7.58-1.62,10.33,10.33,0,0,1-3.21-2.58,9.8,9.8,0,0,1-1.94-3.82,11,11,0,0,1-.06-5,10.26,10.26,0,0,1,1-3,8.6,8.6,0,0,1,1.62-2.17,10.25,10.25,0,0,1,2.16-1.6,21.07,21.07,0,0,1,2.65-1.22c.8-.29,1.6-.56,2.39-.82a12.74,12.74,0,0,0,2.23-.93,6.62,6.62,0,0,0,1.78-1.39,4.56,4.56,0,0,0,1-2.18ZM390,97.84l-1.45,7.44-6-1.17,1.45-7.44Z" style="fill:#ebebeb"></path><path d="M93.62,248.77a18.25,18.25,0,0,1,.22,7.1,11.64,11.64,0,0,1-4,6.37c-.68.63-1.52,1.36-2.53,2.2a24.17,24.17,0,0,0-2.88,2.85,12.62,12.62,0,0,0-2.14,3.5,6.87,6.87,0,0,0-.3,4.08,6.45,6.45,0,0,0,1.23,2.74,6.68,6.68,0,0,0,2.08,1.75,6.93,6.93,0,0,0,2.64.77,9.36,9.36,0,0,0,2.85-.16,8.24,8.24,0,0,0,3-1.24,11.23,11.23,0,0,0,2.21-2,12.35,12.35,0,0,0,1.58-2.45,21.12,21.12,0,0,0,1.06-2.45l7.75,3.21a15.34,15.34,0,0,1-1.77,4.84,16.93,16.93,0,0,1-3.13,4,17.87,17.87,0,0,1-4.21,2.92,20.19,20.19,0,0,1-5,1.76,20.79,20.79,0,0,1-6,.39,15.16,15.16,0,0,1-5.74-1.62,14.41,14.41,0,0,1-4.75-4,15.83,15.83,0,0,1-2.91-6.64,15,15,0,0,1-.36-4.51,12.67,12.67,0,0,1,.93-3.81,14.67,14.67,0,0,1,2-3.34,28.39,28.39,0,0,1,2.82-3.12c.91-.84,1.81-1.66,2.72-2.45a18.41,18.41,0,0,0,2.43-2.5A9.57,9.57,0,0,0,85,254.07a6.64,6.64,0,0,0,.11-3.48Zm-4-18.05,2.28,10.71-8.61,1.84L81,232.56Z" style="fill:#ebebeb"></path><path d="M403.93,103.79a16.19,16.19,0,0,1-.38-6.32,10.37,10.37,0,0,1,3.4-5.78c.58-.58,1.32-1.25,2.2-2a21.38,21.38,0,0,0,2.49-2.61,11,11,0,0,0,1.81-3.17,6.11,6.11,0,0,0,.17-3.65,5.84,5.84,0,0,0-1.17-2.41,6.07,6.07,0,0,0-1.9-1.5,6.2,6.2,0,0,0-2.37-.62,7.94,7.94,0,0,0-2.53.22A7.35,7.35,0,0,0,403,77.1,9.6,9.6,0,0,0,401.11,79a10.78,10.78,0,0,0-1.35,2.23,19.09,19.09,0,0,0-.88,2.21l-7-2.66a13.67,13.67,0,0,1,1.45-4.36A15.1,15.1,0,0,1,396,72.76a16.53,16.53,0,0,1,3.67-2.71,18,18,0,0,1,4.4-1.69,18.32,18.32,0,0,1,5.33-.5,13.45,13.45,0,0,1,5.16,1.29,12.86,12.86,0,0,1,4.33,3.42,14.12,14.12,0,0,1,2.77,5.84,13.62,13.62,0,0,1,.44,4,11,11,0,0,1-.74,3.42,12.91,12.91,0,0,1-1.66,3,25.65,25.65,0,0,1-2.44,2.86c-.78.77-1.57,1.52-2.36,2.25a17.91,17.91,0,0,0-2.1,2.29,8.76,8.76,0,0,0-1.34,2.59,5.81,5.81,0,0,0,0,3.1Zm4,16-2.31-9.48,7.63-1.87,2.31,9.49Z" style="fill:#ebebeb"></path></g><g id="freepik--Shadow--inject-75"><ellipse cx="250" cy="447.16" rx="180.66" ry="23.8" style="fill:#ebebeb"></ellipse></g><g id="freepik--Plant--inject-75"><path d="M84.07,346.79s-15.91-3.61-24.63-11.65-13.59-22.42-13.59-22.42a136.58,136.58,0,0,1,17.84,4.68,30.36,30.36,0,0,1,5.4,7.64,36.21,36.21,0,0,0,0-5.46A24.5,24.5,0,0,1,74.8,323C82,329.35,84.07,346.79,84.07,346.79Z" style="fill:#00BFA6"></path><path d="M55.78,319.71c-2.17-1.5-4.37-2.95-6.53-4.46a.12.12,0,0,1,.13-.21c4.1,2.45,8.14,5.06,12,7.8q2,1.44,4,3l-.27-.47c-.48-.8-1-1.59-1.49-2.37a33.57,33.57,0,0,0-3.38-4.51s0-.12.08-.07c1.24,1.43,2.48,2.84,3.61,4.36.54.72,1,1.46,1.51,2.23q.38.58.72,1.2c.07.13.16.27.23.41,2.06,1.61,4.06,3.3,6,5.08,1.18,1.1,2.31,2.24,3.41,3.41-.61-1.92-1.15-3.87-1.86-5.77,0-.06.08-.09.1,0,.7,2,1.45,4,2,6q1.83,2,3.48,4.1l-.06-.26c-.18-.75-.36-1.5-.57-2.24-.38-1.44-.81-2.87-1.29-4.28a25,25,0,0,0-4.27-8.07c-.05-.06,0-.13.07-.08a31.12,31.12,0,0,1,6.1,12.72q.25,1,.48,2c.08.36.18.73.24,1.1.48.65.95,1.31,1.4,2a68.7,68.7,0,0,1,6.74,13.2,154.81,154.81,0,0,1,5.1,15.9.09.09,0,0,1-.17,0c-3.11-9.31-6.29-18.75-11.61-27.08q-1.69-2.62-3.64-5.08a29.63,29.63,0,0,1-7.73-1.54A34.48,34.48,0,0,1,62.59,334a48.14,48.14,0,0,1-4-3c-.06,0,0-.13.07-.08A31.5,31.5,0,0,0,66,335.35a39.93,39.93,0,0,0,8,2.7c1.17.25,2.36.44,3.55.6a69.86,69.86,0,0,0-4.69-5.2c-.53-.53-1.09-1-1.64-1.56a37.26,37.26,0,0,0-5.88-3.37c-2.61-1.26-5.18-2.6-7.76-3.91-1.45-.74-2.9-1.5-4.37-2.21-.06,0,0-.12.06-.09,2.62,1.26,5.27,2.44,7.91,3.65s5,2.28,7.38,3.62l.3.18q-3.23-2.82-6.67-5.39C60.1,322.78,58,321.22,55.78,319.71Z" style="fill:#263238"></path><path d="M56.69,327.91c1.29.57,2.61,1.07,3.89,1.67s2.56,1.34,3.81,2.08c.06,0,0,.11,0,.08-1.27-.6-2.55-1.17-3.81-1.8S58,328.6,56.65,328A.06.06,0,0,1,56.69,327.91Z" style="fill:#263238"></path><path d="M135.75,266.61A22.76,22.76,0,0,0,131,279.83c-.05,1.42.18,3.41.34,5.75A37.82,37.82,0,0,0,121,294.45a18.84,18.84,0,0,1,10.49-2.51,30.75,30.75,0,0,1-.61,4.75,17.92,17.92,0,0,0-6.74,1.34,15,15,0,0,1,6.08,1.21c-2.84,9-11.27,18.29-34.54,22.22a48.84,48.84,0,0,1,4.12-32.75C106.72,275,135.75,266.61,135.75,266.61Z" style="fill:#00BFA6"></path><path d="M87.57,360.07q.62-5.79,1.51-11.53a229.42,229.42,0,0,1,4.69-22.78,92.55,92.55,0,0,1,3.36-10.39,16.53,16.53,0,0,1-.08-1.86c0-.75,0-1.49,0-2.24,0-1.49.08-3,.21-4.46a53.7,53.7,0,0,1,1.43-8.73c.42-1.66.92-3.29,1.41-4.93a.05.05,0,1,1,.1,0,64.49,64.49,0,0,0-1.72,8.71,82.47,82.47,0,0,0-.78,8.74c0,.8,0,1.6,0,2.4,0,.34,0,.68,0,1a75.76,75.76,0,0,1,3.92-8.12,99.37,99.37,0,0,1,8-11.92,4.75,4.75,0,0,1,.19-1.3c.11-.52.22-1,.34-1.56.24-1.06.51-2.12.79-3.17.58-2.11,1.35-4.15,2-6.23a.05.05,0,1,1,.1,0c-.62,2.06-1,4.2-1.5,6.29-.23,1-.46,2.08-.68,3.12-.12.52-.23,1-.34,1.56a.5.5,0,0,1,0,.12q1.41-1.78,2.88-3.51c4.45-5.22,9.32-10,14.23-14.8l1.83-1.74a.05.05,0,0,1,.07.08c-4.68,4.89-9.3,9.84-13.67,15q-1.56,1.85-3.07,3.73l1.59-1.05c1.36-.88,2.73-1.75,4.14-2.54s2.84-1.56,4.29-2.28,3.09-1.34,4.53-2.18c.06,0,.11.07,0,.09a33.28,33.28,0,0,0-4.25,2.36c-1.42.84-2.83,1.68-4.22,2.56s-2.75,1.73-4.1,2.61c-1.14.74-2.25,1.54-3.42,2.22a109.79,109.79,0,0,0-7.46,10.85,81,81,0,0,0-3.86,7.31l.84-.36,2.13-.94c1.37-.61,2.74-1.21,4.12-1.8,2.61-1.14,5.26-2.18,7.82-3.43a33.42,33.42,0,0,0,4.18-2.32c.06,0,.11.06.05.1-4.77,3.29-10.12,5.61-15.4,7.94l-2.3,1c-.62.27-1.25.59-1.9.83a80.78,80.78,0,0,0-3.94,10.79A219.14,219.14,0,0,0,90.55,346c-1.34,7.61-2.24,15.26-2.94,22.95-.09,1-.17,1.91-.28,2.87a.31.31,0,0,1-.61,0C86.76,367.86,87.16,364,87.57,360.07Z" style="fill:#263238"></path><path d="M101.73,295.79c.43-2.37,1.06-4.68,1.7-7a.05.05,0,1,1,.1,0c-.59,2.28-1,4.59-1.44,6.9s-.82,4.72-1.15,7.09c0,0-.07,0-.06,0A61.14,61.14,0,0,1,101.73,295.79Z" style="fill:#263238"></path><path d="M111.76,302.2a41.88,41.88,0,0,1,5.07-2.84c.84-.44,1.7-.86,2.56-1.28s1.81-.78,2.69-1.22c.06,0,.11.06,0,.09-.85.43-1.66.94-2.49,1.4s-1.72.95-2.59,1.41a56,56,0,0,1-5.16,2.67A.13.13,0,0,1,111.76,302.2Z" style="fill:#263238"></path><path d="M83.78,319.23s-14.72-3.52-21.48-13.39c-6.46-9.44-8.54-25.51-8.71-26.93.27,1.3,3.3,15.35,13.33,21.9C74.59,305.82,82,309.94,83.78,319.23Z" style="fill:#263238;opacity:0.1"></path><path d="M70.19,293.79a18.89,18.89,0,0,1,5.43,8.94s0,0-.05,0a22,22,0,0,0-5.45-8.88C70.07,293.83,70.14,293.74,70.19,293.79Z" style="fill:#263238"></path><path d="M83.78,319.23s-14.72-3.52-21.48-13.39c-6.46-9.44-8.54-25.51-8.71-26.93a.66.66,0,0,0,0-.09s7.06,10,14.48,12.59S85.91,302.82,83.78,319.23Z" style="fill:#00BFA6"></path><path d="M56.18,284.35a60.36,60.36,0,0,0,4.55,7.78,31.12,31.12,0,0,0,6.06,6.23c2,1.59,4.11,3,6.14,4.59l-.05-.08c-.38-.56-.78-1.11-1.2-1.64-.85-1.08-1.77-2.1-2.69-3.1-1.83-2-3.7-3.93-5.34-6.08a22.29,22.29,0,0,1-2.36-3.8c0-.07.07-.1.1,0,2.39,5,7.16,8.16,10.56,12.36.48.6.94,1.22,1.36,1.86a7.36,7.36,0,0,1,.85,1.5,30.93,30.93,0,0,1,5,5.08,19.6,19.6,0,0,0-.59-2.86A14.73,14.73,0,0,0,77,302.42a.05.05,0,0,1,.09-.06,17.52,17.52,0,0,1,1.72,3.7,13.3,13.3,0,0,1,.53,3.18h0a30.62,30.62,0,0,1,2,3.09l-.18-.94c-.3-1.46-.62-2.93-1-4.37a26.33,26.33,0,0,0-3.54-8.3.05.05,0,0,1,.09-.06,31.72,31.72,0,0,1,3.92,8.12c.47,1.44.85,2.91,1.18,4.39.16.73.3,1.45.44,2.18.08.38.16.76.22,1.15a52.89,52.89,0,0,1,3.39,10A146.65,146.65,0,0,1,89,343.1a155.5,155.5,0,0,1,1,19.77c0,.83-.06,1.65-.11,2.48,0,.21-.33.24-.34,0-.15-3.27-.23-6.54-.42-9.8s-.48-6.53-.83-9.78a174.53,174.53,0,0,0-3.07-19c-1.19-5.38-2.74-10.8-5.68-15.52a29.46,29.46,0,0,0-5.31-6.31c-2.07-1.86-4.32-3.48-6.5-5.2a35.51,35.51,0,0,1-6-5.73,46.93,46.93,0,0,1-4.68-7.59l-1.06-2C56.06,284.35,56.15,284.29,56.18,284.35Z" style="fill:#263238"></path><path d="M58.72,286.51A49.9,49.9,0,0,0,62,292.24c0,.05,0,.09-.06.05a39.56,39.56,0,0,1-3.32-5.75C58.59,286.48,58.69,286.45,58.72,286.51Z" style="fill:#263238"></path><path d="M137.8,312.72s.23,20.92-12.28,27-19.21,1-27.71,3h0c.33-.5,6.4-9.22,16.05-11.62C123.79,328.6,134.79,321.43,137.8,312.72Z" style="fill:#00BFA6"></path><path d="M137.8,312.72s.23,20.92-12.28,27-19.21,1-27.71,3h0a47.44,47.44,0,0,1,14.23-4.2C119.93,337.55,135,332.41,137.8,312.72Z" style="opacity:0.1"></path><path d="M97,343.08a21.25,21.25,0,0,1,5-3.37c.27-.13.55-.23.82-.35s.27-.32.42-.48a15.71,15.71,0,0,1,1.18-1.12,17.2,17.2,0,0,1,2.51-1.81c2.07-1.22,4.34-2.07,6.46-3.2.07,0,.12.06.06.09-1,.55-2.06,1.15-3.08,1.74s-2,1.13-3,1.75a21.38,21.38,0,0,0-2.48,1.86c-.22.19-.43.4-.64.61a34.2,34.2,0,0,1,4.23-1.12c2.29-.46,4.6-.79,6.89-1.28,1.12-.24,2.23-.54,3.32-.89,1-.84,2.07-1.67,3-2.58a25,25,0,0,0,3.24-3.58.05.05,0,0,1,.09.06,38.17,38.17,0,0,1-5.13,5.65c.54-.2,1.07-.42,1.6-.66a25.84,25.84,0,0,0,10.66-8.87s.13,0,.09.06a29.21,29.21,0,0,1-8.62,8.28,26.14,26.14,0,0,1-5.45,2.58,52.42,52.42,0,0,1-6.77,1.6,48.4,48.4,0,0,0-6.63,1.57,20.14,20.14,0,0,0-5.56,2.93,26.07,26.07,0,0,0-7.5,9.29,46.88,46.88,0,0,0-4.12,15.3c0,.22-.38.22-.36,0C87.86,358.34,90.21,349.19,97,343.08Z" style="fill:#263238"></path><path d="M111.5,336.26a7.19,7.19,0,0,1,2.57-2.33,9.27,9.27,0,0,0,3.06-2.53c0-.06.14,0,.09.05a10.23,10.23,0,0,1-2.7,2.42,9.5,9.5,0,0,0-2.94,2.44C111.55,336.36,111.47,336.31,111.5,336.26Z" style="fill:#263238"></path><polygon points="104.87 358.52 104.3 370.02 102.55 405.17 76.31 405.17 74.57 370.02 74 358.52 104.87 358.52" style="fill:#37474f"></polygon><polygon points="104.87 358.52 104.3 370.02 74.57 370.02 74 358.52 104.87 358.52" style="fill:#263238"></polygon><rect x="72.16" y="353.72" width="34.55" height="10.97" style="fill:#37474f"></rect></g><g id="freepik--Floor--inject-75"><polygon points="46.66 405.18 97.5 404.94 148.33 404.85 250 404.68 351.67 404.85 402.5 404.93 453.34 405.18 402.5 405.42 351.67 405.51 250 405.68 148.33 405.51 97.5 405.42 46.66 405.18" style="fill:#263238"></polygon></g><g id="freepik--Device--inject-75"><rect x="124.49" y="55.06" width="251.2" height="375.66" rx="10.21" style="fill:#263238"></rect><rect x="135.22" y="81.59" width="229.86" height="323.34" style="fill:#fff"></rect><rect x="135.22" y="81.59" width="229.86" height="60.83" style="fill:#00BFA6"></rect><polygon points="152.56 111.09 147.2 106.07 152.56 101.05 153.39 101.93 148.98 106.07 153.39 110.2 152.56 111.09" style="fill:#fff"></polygon><path d="M352.8,102.94a1.06,1.06,0,1,1-2.11,0,1.06,1.06,0,0,1,2.11,0Z" style="fill:#fff"></path><path d="M352.8,106.69a1.06,1.06,0,1,1-2.11,0,1.06,1.06,0,0,1,2.11,0Z" style="fill:#fff"></path><path d="M352.8,110.44a1.06,1.06,0,1,1-2.11,0,1.06,1.06,0,0,1,2.11,0Z" style="fill:#fff"></path><g id="freepik--u5Zjqx--inject-75"><path d="M175.44,88.46c-.09.1-.19.19-.29.29l-.16.17a4,4,0,0,0-5.63,0l-.16-.17-.29-.29h0l0,0,.36-.32a4.33,4.33,0,0,1,.86-.55,4.85,4.85,0,0,1,1.13-.38l.56-.07h.5l.39,0a4.08,4.08,0,0,1,1,.25,4.58,4.58,0,0,1,.71.33,4.27,4.27,0,0,1,.67.47c.1.08.2.18.3.27Z" style="fill:#fff"></path><path d="M170.28,89.83l-.46-.45a3.27,3.27,0,0,1,1.88-.95,3.31,3.31,0,0,1,2.82.94l-.46.46a2.61,2.61,0,0,0-1.89-.78A2.65,2.65,0,0,0,170.28,89.83Z" style="fill:#fff"></path><path d="M173.6,90.29l-.46.46a1.35,1.35,0,0,0-1-.4,1.33,1.33,0,0,0-1,.4l-.46-.45A2,2,0,0,1,173.6,90.29Z" style="fill:#fff"></path><path d="M172.59,91.17a.41.41,0,0,1-.42.41.41.41,0,0,1-.41-.41.41.41,0,0,1,.41-.42A.42.42,0,0,1,172.59,91.17Z" style="fill:#fff"></path></g><path d="M147,89.34a1.2,1.2,0,1,1,2.4,0,1.2,1.2,0,1,1-2.4,0Z" style="fill:#fff"></path><path d="M150.77,89.34a1.2,1.2,0,1,1,1.2,1.2A1.2,1.2,0,0,1,150.77,89.34Z" style="fill:#fff"></path><path d="M154.55,89.34a1.21,1.21,0,1,1,1.2,1.2A1.2,1.2,0,0,1,154.55,89.34Z" style="fill:#fff"></path><path d="M158.34,89.34a1.2,1.2,0,1,1,1.2,1.2A1.2,1.2,0,0,1,158.34,89.34Z" style="fill:#fff"></path><path d="M162.13,89.34a1.2,1.2,0,1,1,1.2,1.2A1.2,1.2,0,0,1,162.13,89.34Z" style="fill:#fff"></path><path d="M352.15,92h-9.8V87.43h9.8Zm-9.29-.51h8.77V87.94h-8.77Z" style="fill:#fff"></path><rect x="343.17" y="88.2" width="6.31" height="2.99" style="fill:#fff"></rect><rect x="352.15" y="88.49" width="0.87" height="2.42" style="fill:#fff"></rect><polygon points="156.29 393.63 155.49 393.63 155.49 397.3 153.99 397.3 153.99 395.43 151.34 395.43 151.34 397.3 149.85 397.3 149.85 393.63 149.05 393.63 152.67 389.89 156.29 393.63" style="fill:#ebebeb"></polygon><rect x="342.22" y="389.89" width="8.73" height="1.25" style="fill:#ebebeb"></rect><rect x="342.22" y="392.97" width="8.73" height="1.25" style="fill:#ebebeb"></rect><rect x="342.22" y="396.06" width="8.73" height="1.25" style="fill:#ebebeb"></rect><polygon points="252.48 393.1 250 395.75 247.52 393.1 247.95 392.69 250 394.87 252.04 392.69 252.48 393.1" style="fill:#ebebeb"></polygon><path d="M250,398.48a4.51,4.51,0,1,1,4.5-4.5A4.51,4.51,0,0,1,250,398.48Zm0-8.42a3.92,3.92,0,1,0,3.91,3.92A3.93,3.93,0,0,0,250,390.06Z" style="fill:#ebebeb"></path><rect x="186.47" y="100.08" width="127.06" height="12.39" style="opacity:0.1"></rect><path d="M235.22,109l-1,.76-1.86-2.45-.68-.89a1.5,1.5,0,0,0,.39-.22,1.61,1.61,0,0,0,.52-.67l.72,1Z" style="fill:#fff"></path><path d="M233.25,103.26a2.73,2.73,0,1,0-.89,4.07,3,3,0,0,0,.38-.24,2.89,2.89,0,0,0,.57-.59A2.75,2.75,0,0,0,233.25,103.26Zm-1.18,3a1.5,1.5,0,0,1-.39.22,1.64,1.64,0,1,1,.7-2.51,1.67,1.67,0,0,1,.21,1.62A1.61,1.61,0,0,1,232.07,106.22Z" style="fill:#fff"></path><path d="M240.37,107.58a.5.5,0,0,1,.69-.06,3,3,0,0,0,1.79.72,2,2,0,0,0,1.18-.35.83.83,0,0,0,.4-.67.53.53,0,0,0-.08-.31,1.05,1.05,0,0,0-.28-.28,3.77,3.77,0,0,0-1.29-.44h0a4.76,4.76,0,0,1-1.21-.37,2,2,0,0,1-.88-.73,1.46,1.46,0,0,1-.21-.77,1.74,1.74,0,0,1,.75-1.37,2.77,2.77,0,0,1,1.63-.5,3.7,3.7,0,0,1,2,.75.49.49,0,0,1,.13.67.48.48,0,0,1-.67.14,2.72,2.72,0,0,0-1.51-.6,1.8,1.8,0,0,0-1.06.32.74.74,0,0,0-.36.59.42.42,0,0,0,.07.26,1,1,0,0,0,.25.25,3.21,3.21,0,0,0,1.18.41h0a5.36,5.36,0,0,1,1.3.4,2.18,2.18,0,0,1,.94.78,1.5,1.5,0,0,1,.22.8,1.81,1.81,0,0,1-.81,1.45,2.93,2.93,0,0,1-1.74.54,4.05,4.05,0,0,1-2.4-.94A.5.5,0,0,1,240.37,107.58Z" style="fill:#fff"></path><path d="M246.42,106.87a2.32,2.32,0,0,1,2.29-2.35A2.26,2.26,0,0,1,251,106.7v0a.25.25,0,0,1,0,.08.46.46,0,0,1-.49.38h-3a1.28,1.28,0,0,0,.32.62,1.49,1.49,0,0,0,.9.42,1.59,1.59,0,0,0,1-.23.52.52,0,0,1,.7,0,.42.42,0,0,1,0,.61,2.38,2.38,0,0,1-1.68.62A2.33,2.33,0,0,1,246.42,106.87Zm1-.46h2.66a1.53,1.53,0,0,0-1.39-1A1.32,1.32,0,0,0,247.44,106.41Z" style="fill:#fff"></path><path d="M256.45,106.88v1.84a.5.5,0,0,1-1,.09,2.1,2.1,0,0,1-1.25.41,2.17,2.17,0,0,1-1.6-.69,2.46,2.46,0,0,1,0-3.31,2.15,2.15,0,0,1,2.85-.29.51.51,0,0,1,.49-.41.5.5,0,0,1,.5.5Zm-1,0a1.35,1.35,0,0,0-.37-1,1.13,1.13,0,0,0-.87-.39,1.1,1.1,0,0,0-.87.39,1.35,1.35,0,0,0-.36,1,1.42,1.42,0,0,0,.36,1,1.18,1.18,0,0,0,.87.36,1.21,1.21,0,0,0,.87-.36A1.42,1.42,0,0,0,255.45,106.88Z" style="fill:#fff"></path><path d="M261.19,105a.5.5,0,0,1-.5.49.92.92,0,0,0-.57.18,1.53,1.53,0,0,0-.43.45,2.8,2.8,0,0,0-.38.79v1.79a.52.52,0,0,1-.52.5.51.51,0,0,1-.5-.5V105a.49.49,0,0,1,.5-.49.5.5,0,0,1,.52.49v.06a1.7,1.7,0,0,1,.19-.19,2.12,2.12,0,0,1,1.19-.36A.49.49,0,0,1,261.19,105Z" style="fill:#fff"></path><path d="M261.85,106.88a2.39,2.39,0,0,1,2.39-2.36,2.49,2.49,0,0,1,1.5.51.53.53,0,0,1,.1.7.5.5,0,0,1-.71.09,1.53,1.53,0,0,0-.89-.3,1.35,1.35,0,1,0,0,2.7,1.49,1.49,0,0,0,.89-.3.52.52,0,0,1,.71.1.53.53,0,0,1-.1.7,2.62,2.62,0,0,1-1.5.5A2.38,2.38,0,0,1,261.85,106.88Z" style="fill:#fff"></path><path d="M268.59,108.7a.52.52,0,0,1-.52.52.52.52,0,0,1-.5-.39.44.44,0,0,1,0-.13v-5.55a.52.52,0,0,1,1,0v1.64a2.14,2.14,0,0,1,1-.27,2.05,2.05,0,0,1,2,2.06v2.12a.52.52,0,0,1-.52.52.51.51,0,0,1-.51-.52v-2.12a1,1,0,1,0-2,0Z" style="fill:#fff"></path><rect x="135.22" y="125.62" width="229.86" height="16.8" style="opacity:0.1"></rect><path d="M172.44,135.49h-1.87l-.37,1a.44.44,0,0,1-.4.26.39.39,0,0,1-.15,0,.44.44,0,0,1-.25-.55l1.69-4.51a.43.43,0,0,1,.41-.27.42.42,0,0,1,.41.27l1.69,4.51a.43.43,0,0,1-.25.55.36.36,0,0,1-.15,0,.41.41,0,0,1-.39-.26Zm-.32-.84L171.5,133l-.62,1.65Z" style="fill:#fff"></path><path d="M174.35,135.42a.4.4,0,0,1,.56,0,2.48,2.48,0,0,0,1.46.59,1.66,1.66,0,0,0,1-.29.66.66,0,0,0,.32-.55.45.45,0,0,0-.06-.24.72.72,0,0,0-.23-.23,3,3,0,0,0-1.05-.36h0a4.1,4.1,0,0,1-1-.3,1.66,1.66,0,0,1-.71-.6,1.22,1.22,0,0,1-.18-.63,1.41,1.41,0,0,1,.62-1.11,2.18,2.18,0,0,1,1.32-.41,3,3,0,0,1,1.67.61.4.4,0,0,1,.11.55.39.39,0,0,1-.54.11,2.24,2.24,0,0,0-1.24-.49,1.46,1.46,0,0,0-.85.26.61.61,0,0,0-.3.48.36.36,0,0,0,.06.22.75.75,0,0,0,.2.2,2.72,2.72,0,0,0,1,.33h0a4.32,4.32,0,0,1,1.05.33,1.78,1.78,0,0,1,.77.63,1.22,1.22,0,0,1,.18.65,1.49,1.49,0,0,1-.65,1.19,2.4,2.4,0,0,1-1.42.44,3.26,3.26,0,0,1-2-.77A.41.41,0,0,1,174.35,135.42Z" style="fill:#fff"></path><path d="M179.62,136.33v-4.48a.42.42,0,0,1,.84,0v2.2l2.48-2.49a.42.42,0,0,1,.6,0,.43.43,0,0,1,0,.6l-1.68,1.68,1.7,2.22a.41.41,0,0,1-.07.59.35.35,0,0,1-.26.1.42.42,0,0,1-.32-.15l-1.65-2.17-.8.82v1.08a.42.42,0,1,1-.84,0Z" style="fill:#fff"></path><rect x="216.36" y="125.62" width="67.29" height="16.8" style="fill:#fff"></rect><path d="M236.77,135.49h-1.86l-.37,1a.44.44,0,0,1-.4.26.39.39,0,0,1-.15,0,.43.43,0,0,1-.25-.55l1.69-4.51a.43.43,0,0,1,.41-.27.42.42,0,0,1,.41.27l1.69,4.51a.43.43,0,0,1-.25.55.36.36,0,0,1-.15,0,.41.41,0,0,1-.39-.26Zm-.31-.84-.62-1.65-.62,1.65Z" style="fill:#00BFA6"></path><path d="M239.83,136.33a.43.43,0,0,1-.42.42.42.42,0,0,1-.42-.42v-4.45h0a.41.41,0,0,1,.17-.36.42.42,0,0,1,.58.09l2.48,3.43v-3.16a.41.41,0,0,1,.41-.41.42.42,0,0,1,.42.41v4.45a.42.42,0,0,1-.42.42.4.4,0,0,1-.31-.15l0,0-2.45-3.41Z" style="fill:#00BFA6"></path><path d="M244.72,135.42a.4.4,0,0,1,.56,0,2.48,2.48,0,0,0,1.46.59,1.66,1.66,0,0,0,1-.29.66.66,0,0,0,.32-.55.45.45,0,0,0-.06-.24.72.72,0,0,0-.23-.23,3,3,0,0,0-1-.36h0a4.1,4.1,0,0,1-1-.3,1.66,1.66,0,0,1-.71-.6,1.21,1.21,0,0,1-.17-.63,1.4,1.4,0,0,1,.61-1.11,2.2,2.2,0,0,1,1.32-.41,3,3,0,0,1,1.67.61.4.4,0,0,1,.11.55.39.39,0,0,1-.54.11,2.24,2.24,0,0,0-1.24-.49,1.51,1.51,0,0,0-.86.26.62.62,0,0,0-.29.48.36.36,0,0,0,.06.22.75.75,0,0,0,.2.2,2.72,2.72,0,0,0,1,.33h0a4.32,4.32,0,0,1,1.05.33,1.78,1.78,0,0,1,.77.63,1.22,1.22,0,0,1,.18.65,1.49,1.49,0,0,1-.65,1.19,2.4,2.4,0,0,1-1.42.44,3.26,3.26,0,0,1-2-.77A.41.41,0,0,1,244.72,135.42Z" style="fill:#00BFA6"></path><path d="M256.86,132,255,136.49a.11.11,0,0,1,0,.07h0l0,.05v0s0,0,0,0h0s0,0-.07,0h0l-.07,0h-.18l-.05,0h0s-.05,0-.07,0h0l-.06,0v0s0,0,0-.05h0a.24.24,0,0,1,0-.07l-1-2.37-1,2.37a.11.11,0,0,1,0,.07h0s0,0,0,.05v0l0,0h0l-.06,0h0a.11.11,0,0,0-.06,0h-.19l-.05,0h0s-.05,0-.07,0h0l-.06,0v0l0-.05h0s0,0,0-.07L249.55,132a.41.41,0,0,1,.22-.55.42.42,0,0,1,.55.23l1.5,3.54,1-2.35a.43.43,0,0,1,.79,0l1,2.35,1.5-3.54a.42.42,0,1,1,.77.32Z" style="fill:#00BFA6"></path><path d="M258.08,136.33v-4.52a.42.42,0,0,1,.42-.42H261a.43.43,0,1,1,0,.85h-2.07v1.4h1.78a.43.43,0,0,1,.42.43.42.42,0,0,1-.42.42h-1.78v1.41H261a.44.44,0,0,1,.43.43.43.43,0,0,1-.43.42h-2.5A.42.42,0,0,1,258.08,136.33Z" style="fill:#00BFA6"></path><path d="M266.32,136.12a.42.42,0,0,1-.27.53.52.52,0,0,1-.17,0h0a.56.56,0,0,1-.3-.09.75.75,0,0,1-.24-.26,2.05,2.05,0,0,1-.16-.92.68.68,0,0,0-.09-.33.84.84,0,0,0-.23-.23,2,2,0,0,0-.43-.18h-.91v1.66a.43.43,0,0,1-.85,0v-4.52a.42.42,0,0,1,.42-.42h1.38a1.63,1.63,0,0,1,1.63,1.65,1.66,1.66,0,0,1-.59,1.26.88.88,0,0,1,.26.28,1.39,1.39,0,0,1,.26.83,1.6,1.6,0,0,0,0,.45A.43.43,0,0,1,266.32,136.12ZM265.24,133a.79.79,0,0,0-.78-.8h-.95v1.58h.95A.78.78,0,0,0,265.24,133Z" style="fill:#00BFA6"></path><path d="M307.33,136.33v-4.52a.42.42,0,0,1,.42-.42h.91a2.68,2.68,0,0,1,0,5.36h-.91A.42.42,0,0,1,307.33,136.33Zm.85-.43h.48a1.83,1.83,0,0,0,0-3.66h-.48Z" style="fill:#fff"></path><path d="M312.51,131.81a.42.42,0,0,1,.42-.42.43.43,0,0,1,.43.42v4.52a.42.42,0,0,1-.43.42.41.41,0,0,1-.42-.42Z" style="fill:#fff"></path><path d="M314.62,135.42a.4.4,0,0,1,.56,0,2.5,2.5,0,0,0,1.46.59,1.66,1.66,0,0,0,1-.29.68.68,0,0,0,.33-.55.45.45,0,0,0-.07-.24.72.72,0,0,0-.23-.23,2.89,2.89,0,0,0-1.05-.36h0a4,4,0,0,1-1-.3,1.63,1.63,0,0,1-.72-.6,1.21,1.21,0,0,1-.17-.63,1.4,1.4,0,0,1,.61-1.11,2.2,2.2,0,0,1,1.32-.41,3,3,0,0,1,1.67.61.4.4,0,0,1,.11.55.39.39,0,0,1-.54.11,2.24,2.24,0,0,0-1.24-.49,1.46,1.46,0,0,0-.85.26.59.59,0,0,0-.29.48.36.36,0,0,0,0,.22.81.81,0,0,0,.21.2,2.66,2.66,0,0,0,.95.33h0a4.54,4.54,0,0,1,1.06.33,1.75,1.75,0,0,1,.76.63,1.23,1.23,0,0,1,.19.65,1.5,1.5,0,0,1-.66,1.19,2.4,2.4,0,0,1-1.42.44,3.28,3.28,0,0,1-2-.77A.41.41,0,0,1,314.62,135.42Z" style="fill:#fff"></path><path d="M319.65,134a2.84,2.84,0,0,1,4.58-2.16.44.44,0,0,1-.53.69,2,2,0,0,0-1.24-.42,2.05,2.05,0,0,0-1.37.55,1.9,1.9,0,0,0-.56,1.34,1.84,1.84,0,0,0,.56,1.33,2,2,0,0,0,1.37.55,1.92,1.92,0,0,0,1.24-.42.46.46,0,0,1,.61.08.45.45,0,0,1-.08.62,2.88,2.88,0,0,1-1.77.59A2.8,2.8,0,0,1,319.65,134Z" style="fill:#fff"></path><path d="M329.87,132.06a2.82,2.82,0,0,1,.77,1.94,2.78,2.78,0,0,1-.77,1.93,2.5,2.5,0,0,1-1.83.82,2.58,2.58,0,0,1-1.88-.82,2.73,2.73,0,0,1-.76-1.93,2.77,2.77,0,0,1,.76-1.94,2.54,2.54,0,0,1,1.88-.82A2.47,2.47,0,0,1,329.87,132.06Zm-.1,1.94a2,2,0,0,0-.52-1.34,1.65,1.65,0,0,0-1.21-.55,1.69,1.69,0,0,0-1.25.55,1.94,1.94,0,0,0-.52,1.34,1.92,1.92,0,0,0,.52,1.33,1.73,1.73,0,0,0,1.25.55,1.69,1.69,0,0,0,1.21-.55A2,2,0,0,0,329.77,134Z" style="fill:#fff"></path><path d="M333.58,136.68a.1.1,0,0,0-.05,0v0l0-.05h0l0-.06L331.56,132a.42.42,0,0,1,.78-.32l1.49,3.54,1.49-3.54a.43.43,0,0,1,.56-.23.42.42,0,0,1,.22.55l-1.89,4.47a.07.07,0,0,1,0,.06h0s0,0,0,.05l0,0-.05,0h0l-.06,0h0l-.06,0h-.18l-.06,0h0l-.07,0Z" style="fill:#fff"></path><path d="M337.35,136.33v-4.52a.42.42,0,0,1,.42-.42h2.5a.43.43,0,1,1,0,.85H338.2v1.4H340a.43.43,0,0,1,.42.43.42.42,0,0,1-.42.42H338.2v1.41h2.07a.44.44,0,0,1,.43.43.43.43,0,0,1-.43.42h-2.5A.42.42,0,0,1,337.35,136.33Z" style="fill:#fff"></path><path d="M345.59,136.12a.42.42,0,0,1-.27.53.52.52,0,0,1-.17,0h0a.59.59,0,0,1-.3-.09.75.75,0,0,1-.24-.26,2.05,2.05,0,0,1-.16-.92.59.59,0,0,0-.1-.33.68.68,0,0,0-.22-.23,2.21,2.21,0,0,0-.43-.18h-.91v1.66a.43.43,0,0,1-.85,0v-4.52a.42.42,0,0,1,.42-.42h1.37a1.64,1.64,0,0,1,1.64,1.65,1.66,1.66,0,0,1-.59,1.26.88.88,0,0,1,.26.28,1.39,1.39,0,0,1,.26.83,1.6,1.6,0,0,0,0,.45A.43.43,0,0,1,345.59,136.12ZM344.51,133a.79.79,0,0,0-.79-.8h-.94v1.58h.94A.78.78,0,0,0,344.51,133Z" style="fill:#fff"></path><path d="M180,162.23V166a.35.35,0,0,1-.35.35.35.35,0,0,1-.35-.35V163.3l-.91,1.26a.35.35,0,0,1-.28.14h0a.36.36,0,0,1-.29-.14l-.91-1.26V166a.35.35,0,1,1-.69,0v-3.72a.35.35,0,0,1,.34-.35h0a.35.35,0,0,1,.28.15l1.25,1.74,1.26-1.74a.33.33,0,0,1,.28-.15h0A.36.36,0,0,1,180,162.23Z" style="fill:#263238"></path><path d="M184.08,164.73V166a.34.34,0,0,1-.33.34.34.34,0,0,1-.33-.28,1.39,1.39,0,0,1-.84.28,1.47,1.47,0,0,1-1.07-.46,1.62,1.62,0,0,1-.43-1.11,1.58,1.58,0,0,1,.43-1.11,1.42,1.42,0,0,1,1.91-.2.33.33,0,0,1,.66.06Zm-.67,0a.93.93,0,0,0-.24-.65.8.8,0,0,0-.59-.26.77.77,0,0,0-.59.26.93.93,0,0,0-.24.65,1,1,0,0,0,.24.65.83.83,0,0,0,.59.24.87.87,0,0,0,.59-.24A1,1,0,0,0,183.41,164.73Z" style="fill:#263238"></path><path d="M186.73,163.49a.35.35,0,0,1-.35.35h-.16v1.76a.35.35,0,1,1,0,.7.71.71,0,0,1-.7-.7v-1.76h-.18a.35.35,0,0,1,0-.7h.18v-.91a.35.35,0,0,1,.35-.35.35.35,0,0,1,.35.35v.91h.16A.35.35,0,0,1,186.73,163.49Z" style="fill:#263238"></path><path d="M188.41,166a.35.35,0,0,1-.36.35.36.36,0,0,1-.33-.26.28.28,0,0,1,0-.09v-3.72a.35.35,0,0,1,.34-.35.36.36,0,0,1,.36.35v1.1a1.41,1.41,0,0,1,.67-.19,1.39,1.39,0,0,1,1.38,1.38V166a.35.35,0,0,1-.35.35.34.34,0,0,1-.35-.35v-1.43a.68.68,0,1,0-1.35,0Z" style="fill:#263238"></path><path d="M191.35,164.72a1.56,1.56,0,0,1,1.54-1.58,1.51,1.51,0,0,1,1.52,1.47v0a.15.15,0,0,1,0,.06.3.3,0,0,1-.33.25h-2a.81.81,0,0,0,.21.41,1,1,0,0,0,.61.29,1,1,0,0,0,.65-.16.37.37,0,0,1,.48,0,.29.29,0,0,1,0,.41,1.63,1.63,0,0,1-1.13.42A1.56,1.56,0,0,1,191.35,164.72Zm.69-.31h1.78a1,1,0,0,0-.93-.67A.88.88,0,0,0,192,164.41Z" style="fill:#263238"></path><path d="M199.3,163.65l-1,2.44a.14.14,0,0,1,0,.06h0l0,0h0l0,0a0,0,0,0,0,0,0l0,0h-.26l-.06,0h0l0,0h0l0,0h0a.14.14,0,0,1,0-.06L197.2,165l-.45,1.09,0,.06h0l0,0h0l0,0-.06,0h-.27s0,0-.05,0h0l0,0h0l0,0h0l0-.06-1-2.44a.34.34,0,0,1,.19-.44.31.31,0,0,1,.41.19l.75,1.7.44-1a.33.33,0,0,1,.31-.21.34.34,0,0,1,.31.21l.44,1,.75-1.7a.31.31,0,0,1,.42-.19A.33.33,0,0,1,199.3,163.65Z" style="fill:#263238"></path><path d="M202.44,164a2.3,2.3,0,0,1,2.31-2.27,2.36,2.36,0,0,1,1.46.49.37.37,0,0,1,.06.5.36.36,0,0,1-.5.07,1.67,1.67,0,0,0-2.15.11,1.53,1.53,0,0,0-.46,1.1,1.48,1.48,0,0,0,.46,1.09,1.65,1.65,0,0,0,1.13.46,1.6,1.6,0,0,0,1-.35.38.38,0,0,1,.5.07.37.37,0,0,1-.06.5,2.36,2.36,0,0,1-1.46.5A2.3,2.3,0,0,1,202.44,164Z" style="fill:#263238"></path><path d="M207.65,165.84a1.59,1.59,0,0,1-.44-1.11,1.67,1.67,0,0,1,.44-1.11,1.49,1.49,0,0,1,1.08-.48,1.39,1.39,0,0,1,1.05.48,1.58,1.58,0,0,1,.45,1.11,1.51,1.51,0,0,1-.45,1.11,1.39,1.39,0,0,1-1.05.48A1.49,1.49,0,0,1,207.65,165.84Zm.25-1.11a1,1,0,0,0,.23.66.85.85,0,0,0,1.18,0,.93.93,0,0,0,.25-.66,1,1,0,0,0-.25-.66.89.89,0,0,0-.58-.24.88.88,0,0,0-.6.24A1,1,0,0,0,207.9,164.73Z" style="fill:#263238"></path><path d="M211.59,165.84a1.55,1.55,0,0,1-.44-1.11,1.62,1.62,0,0,1,.44-1.11,1.47,1.47,0,0,1,1.08-.48,1.41,1.41,0,0,1,1.05.48,1.57,1.57,0,0,1,.44,1.11,1.51,1.51,0,0,1-.44,1.11,1.41,1.41,0,0,1-1.05.48A1.47,1.47,0,0,1,211.59,165.84Zm.25-1.11a1,1,0,0,0,.22.66.84.84,0,0,0,.61.24.8.8,0,0,0,.58-.24.93.93,0,0,0,.25-.66,1,1,0,0,0-.25-.66.89.89,0,0,0-.58-.24.93.93,0,0,0-.61.24A1,1,0,0,0,211.84,164.73Z" style="fill:#263238"></path><path d="M215.23,167.14v-2.41h0v-1.25a.34.34,0,0,1,.34-.34.34.34,0,0,1,.34.26,1.64,1.64,0,0,1,.86-.26,1.57,1.57,0,0,1,1.53,1.59,1.55,1.55,0,0,1-1.53,1.56,1.4,1.4,0,0,1-.84-.26v1.11a.35.35,0,0,1-.36.34A.34.34,0,0,1,215.23,167.14Zm.7-2.41a.87.87,0,0,0,.24.63.81.81,0,0,0,1.19,0,.92.92,0,0,0,.25-.63.94.94,0,0,0-.25-.64.81.81,0,0,0-1.19,0A.89.89,0,0,0,215.93,164.73Z" style="fill:#263238"></path><path d="M219.11,164.72a1.56,1.56,0,0,1,1.54-1.58,1.51,1.51,0,0,1,1.51,1.47v.09a.3.3,0,0,1-.33.25h-2a.81.81,0,0,0,.21.41,1,1,0,0,0,.61.29,1,1,0,0,0,.65-.16.35.35,0,0,1,.47,0,.28.28,0,0,1,0,.41,1.61,1.61,0,0,1-1.12.42A1.56,1.56,0,0,1,219.11,164.72Zm.68-.31h1.79a1,1,0,0,0-.93-.67A.9.9,0,0,0,219.79,164.41Z" style="fill:#263238"></path><path d="M225,163.48a.33.33,0,0,1-.33.33.64.64,0,0,0-.38.12,1.07,1.07,0,0,0-.29.31,2.43,2.43,0,0,0-.26.52V166a.34.34,0,0,1-.68,0v-2.48a.34.34,0,0,1,.68,0v0a.81.81,0,0,1,.14-.12,1.33,1.33,0,0,1,.79-.25A.33.33,0,0,1,225,163.48Z" style="fill:#263238"></path><path d="M166.35,170.23a7.47,7.47,0,0,1-2.11.88,7.28,7.28,0,1,1,2.11-.88Z" style="fill:#455a64"></path><path d="M164.73,163.2a2.22,2.22,0,1,1-2.22-2.22A2.21,2.21,0,0,1,164.73,163.2Z" style="fill:#fff"></path><path d="M166.35,169.31v.92a7.47,7.47,0,0,1-2.11.88,7.28,7.28,0,0,1-5.56-.88v-.92a3.84,3.84,0,0,1,7.67,0Z" style="fill:#fff"></path><path d="M341.34,159.25a.49.49,0,0,1,.49.48.48.48,0,0,1-.49.48.47.47,0,0,1-.47-.48A.48.48,0,0,1,341.34,159.25Z"></path><path d="M342.83,159.25a.49.49,0,0,1,.49.48.49.49,0,1,1-.49-.48Z"></path><path d="M344.32,159.25a.49.49,0,0,1,.49.48.49.49,0,1,1-.49-.48Z"></path><polygon points="155.22 177.33 178.9 177.11 198.47 176.98 237.62 176.88 276.78 176.98 296.35 177.11 315.93 177.33 296.35 177.55 276.78 177.68 237.62 177.78 198.47 177.68 178.9 177.55 155.22 177.33" style="fill:#263238"></polygon><path d="M155.22,181.48c9.5-.19,23.09-.27,32.59-.35l28.49-.1,28.49.1,14.24.13,14.25.22L259,181.7l-14.24.13-28.49.1-28.49-.1C178.31,181.76,164.72,181.67,155.22,181.48Z" style="fill:#263238"></path><path d="M155.22,185.63c6.34-.19,16.78-.27,23.12-.35s12.68-.06,19-.1,12.68,0,19,.1l9.51.13c3.17.07,6.34.12,9.51.22-3.17.1-6.34.15-9.51.22l-9.51.13c-6.34.07-12.68.07-19,.1s-12.69,0-19-.1S161.56,185.82,155.22,185.63Z" style="fill:#263238"></path><rect x="155.19" y="199.08" width="46.2" height="13.18" style="fill:#00BFA6"></rect><path d="M172.42,207.09h-1.86l-.38,1a.43.43,0,0,1-.4.27l-.14,0a.44.44,0,0,1-.26-.55l1.7-4.51a.44.44,0,0,1,.81,0l1.69,4.51a.43.43,0,0,1-.25.55l-.15,0a.41.41,0,0,1-.39-.27Zm-.32-.85-.62-1.64-.62,1.64Z" style="fill:#fff"></path><path d="M177.74,206.11V208a.4.4,0,0,1-.4.4.41.41,0,0,1-.41-.4v-1.84a.79.79,0,0,0-.8-.77.77.77,0,0,0-.76.77V208a.11.11,0,0,1,0,.07.41.41,0,0,1-.81-.07v-3a.41.41,0,0,1,.41-.41.4.4,0,0,1,.37.24,1.51,1.51,0,0,1,.81-.24A1.61,1.61,0,0,1,177.74,206.11Z" style="fill:#fff"></path><path d="M179.05,207.26a.39.39,0,0,1,.57-.07,1.41,1.41,0,0,0,.85.34,1.14,1.14,0,0,0,.52-.14.34.34,0,0,0,.13-.23s0-.06,0-.08a.3.3,0,0,0-.1-.09,1.71,1.71,0,0,0-.61-.22h0a2.22,2.22,0,0,1-.66-.2,1.13,1.13,0,0,1-.53-.44.89.89,0,0,1-.13-.48,1.08,1.08,0,0,1,.45-.84,1.61,1.61,0,0,1,.94-.29,2,2,0,0,1,1.15.42.43.43,0,0,1,.12.57.4.4,0,0,1-.56.11,1.35,1.35,0,0,0-.71-.29.76.76,0,0,0-.46.14.23.23,0,0,0-.12.18.11.11,0,0,0,0,.06.39.39,0,0,0,.09.08,1.91,1.91,0,0,0,.56.18h0a2.35,2.35,0,0,1,.71.22,1.2,1.2,0,0,1,.55.45,1,1,0,0,1,.14.51,1.07,1.07,0,0,1-.48.88,1.67,1.67,0,0,1-1,.31,2.23,2.23,0,0,1-1.37-.53A.4.4,0,0,1,179.05,207.26Z" style="fill:#fff"></path><path d="M187.81,205.13l-1.26,3,0,.06h0l0,0h0l0,0h0l-.07,0a0,0,0,0,0,0,0H186a.12.12,0,0,1-.07,0h0s0,0,0,0h0l0,0a0,0,0,0,1,0,0,.16.16,0,0,0,0-.06l-.56-1.33-.54,1.33a.15.15,0,0,0,0,.06h0l0,0h0l0,0-.07,0h-.31s0,0,0,0-.06,0-.07,0h0l0,0h0l0,0s0,0,0,0a.09.09,0,0,0,0-.06l-1.25-3a.39.39,0,0,1,.22-.52.38.38,0,0,1,.51.23l.9,2.06.54-1.28a.39.39,0,0,1,.37-.25.4.4,0,0,1,.38.25l.54,1.28.9-2.06a.38.38,0,0,1,.52-.23A.4.4,0,0,1,187.81,205.13Z" style="fill:#fff"></path><path d="M188.75,206.44a1.88,1.88,0,0,1,1.86-1.92,1.83,1.83,0,0,1,1.85,1.78v0a.2.2,0,0,1,0,.07.36.36,0,0,1-.4.3h-2.43a1,1,0,0,0,.26.51,1.24,1.24,0,0,0,1.53.15.44.44,0,0,1,.58,0,.36.36,0,0,1,0,.5,2,2,0,0,1-1.38.5A1.89,1.89,0,0,1,188.75,206.44Zm.83-.38h2.17a1.25,1.25,0,0,0-1.14-.81A1.07,1.07,0,0,0,189.58,206.06Z" style="fill:#fff"></path><path d="M195.87,204.93a.4.4,0,0,1-.4.4.73.73,0,0,0-.46.15,1,1,0,0,0-.35.37,2.18,2.18,0,0,0-.32.64V208a.42.42,0,0,1-.83,0v-3a.42.42,0,0,1,.83,0v0l.16-.15a1.65,1.65,0,0,1,1-.3A.39.39,0,0,1,195.87,204.93Z" style="fill:#fff"></path><path d="M160.27,206.72a1.87,1.87,0,0,1-.33-1.05c0-1.33,1.46-2.4,3.26-2.4s3.26,1.07,3.26,2.4-1.46,2.41-3.26,2.41a4,4,0,0,1-2.25-.66l-1.12.28Z" style="fill:#fff"></path><path d="M219.17,210.71V200h7.72v10.75l-3.86-3Zm3.86-4.29,2.86,2.24V201h-5.72v7.7Z" style="fill:#c7c7c7"></path><path d="M232,207.1a.4.4,0,0,1,.56,0,2.52,2.52,0,0,0,1.46.58,1.65,1.65,0,0,0,1-.28.69.69,0,0,0,.33-.55.45.45,0,0,0-.07-.24.72.72,0,0,0-.23-.23,2.89,2.89,0,0,0-1.05-.36h0a4.51,4.51,0,0,1-1-.3,1.69,1.69,0,0,1-.72-.6,1.21,1.21,0,0,1-.17-.63,1.42,1.42,0,0,1,.61-1.12,2.27,2.27,0,0,1,1.33-.4,3.07,3.07,0,0,1,1.67.61.39.39,0,0,1,.1.54.38.38,0,0,1-.54.12,2.23,2.23,0,0,0-1.23-.49,1.46,1.46,0,0,0-.86.26.59.59,0,0,0-.29.48.4.4,0,0,0,.05.22.66.66,0,0,0,.21.19,2.65,2.65,0,0,0,1,.34h0a5.08,5.08,0,0,1,1.06.32,1.84,1.84,0,0,1,.76.64,1.18,1.18,0,0,1,.19.65,1.5,1.5,0,0,1-.66,1.19,2.44,2.44,0,0,1-1.42.43,3.28,3.28,0,0,1-2-.76A.41.41,0,0,1,232,207.1Z" style="fill:#c7c7c7"></path><path d="M240.38,206.52V208a.41.41,0,0,1-.41.4.42.42,0,0,1-.4-.33,1.7,1.7,0,0,1-1,.33,1.76,1.76,0,0,1-1.3-.56,1.94,1.94,0,0,1-.52-1.35,1.92,1.92,0,0,1,.52-1.34,1.74,1.74,0,0,1,1.3-.58,1.71,1.71,0,0,1,1,.34.43.43,0,0,1,.4-.34.42.42,0,0,1,.41.42Zm-.81,0a1.12,1.12,0,0,0-.3-.78,1,1,0,0,0-.72-.32.93.93,0,0,0-.71.32,1.12,1.12,0,0,0-.29.78,1.16,1.16,0,0,0,.29.79,1,1,0,0,0,.71.3,1,1,0,0,0,.72-.3A1.17,1.17,0,0,0,239.57,206.52Z" style="fill:#c7c7c7"></path><path d="M244.75,205.21l-1.26,3,0,.05h0l0,.05h0l-.05,0h0l-.06,0H243l-.07,0h0l0,0h0l0-.05h0s0,0,0-.05l-1.24-3a.39.39,0,1,1,.73-.29l.88,2.08.89-2.08a.4.4,0,1,1,.74.29Z" style="fill:#c7c7c7"></path><path d="M245.68,206.52a1.9,1.9,0,0,1,1.87-1.92,1.83,1.83,0,0,1,1.84,1.78v.11a.38.38,0,0,1-.4.3h-2.44a1,1,0,0,0,.26.51,1.19,1.19,0,0,0,.74.34,1.17,1.17,0,0,0,.79-.19.44.44,0,0,1,.58,0,.35.35,0,0,1,0,.5,2,2,0,0,1-1.37.5A1.9,1.9,0,0,1,245.68,206.52Zm.83-.38h2.17a1.25,1.25,0,0,0-1.13-.81A1.08,1.08,0,0,0,246.51,206.14Z" style="fill:#c7c7c7"></path><path d="M168.84,337a7.41,7.41,0,0,1-2.1.88,7.29,7.29,0,1,1,2.1-.88Z" style="fill:#a6a6a6"></path><path d="M167.22,329.93a2.22,2.22,0,1,1-2.21-2.22A2.21,2.21,0,0,1,167.22,329.93Z" style="fill:#fff"></path><path d="M168.84,336.05V337a7.41,7.41,0,0,1-2.1.88,7.3,7.3,0,0,1-5.57-.88v-.91a3.84,3.84,0,1,1,7.67,0Z" style="fill:#fff"></path><path d="M178,331.05a2.25,2.25,0,0,1,2.26-2.21,2.32,2.32,0,0,1,1.42.48.35.35,0,0,1-.43.56,1.54,1.54,0,0,0-1-.34,1.63,1.63,0,0,0-1.11.44,1.5,1.5,0,0,0-.45,1.07,1.48,1.48,0,0,0,.45,1.07,1.63,1.63,0,0,0,1.11.44,1.55,1.55,0,0,0,1-.33.35.35,0,0,1,.43.56,2.31,2.31,0,0,1-1.42.47A2.25,2.25,0,0,1,178,331.05Z" style="fill:#263238"></path><path d="M185.5,331.73v1.21a.32.32,0,0,1-.32.32.33.33,0,0,1-.32-.26,1.38,1.38,0,0,1-.82.26,1.46,1.46,0,0,1-1-.44,1.62,1.62,0,0,1-.41-1.09,1.57,1.57,0,0,1,.41-1.08,1.44,1.44,0,0,1,1-.46,1.46,1.46,0,0,1,.82.27.34.34,0,0,1,.32-.27.32.32,0,0,1,.32.33Zm-.65,0a.89.89,0,0,0-.24-.63.74.74,0,0,0-.57-.25.72.72,0,0,0-.57.25.89.89,0,0,0-.24.63.92.92,0,0,0,.24.64.78.78,0,0,0,.57.24.8.8,0,0,0,.57-.24A.92.92,0,0,0,184.85,331.73Z" style="fill:#263238"></path><path d="M188.6,330.52a.32.32,0,0,1-.33.32.56.56,0,0,0-.36.12,1,1,0,0,0-.29.29,2.09,2.09,0,0,0-.25.52v1.17a.33.33,0,0,1-.34.32.32.32,0,0,1-.32-.32v-2.42a.32.32,0,0,1,.32-.32.33.33,0,0,1,.34.32v0l.13-.12a1.28,1.28,0,0,1,.77-.24A.32.32,0,0,1,188.6,330.52Z" style="fill:#263238"></path><path d="M189.79,329a.34.34,0,0,1,.34.34v3.63a.34.34,0,0,1-.68,0V329.3A.34.34,0,0,1,189.79,329Z" style="fill:#263238"></path><path d="M192.71,332.2a.32.32,0,0,1,.45-.05,2.06,2.06,0,0,0,1.17.48,1.35,1.35,0,0,0,.77-.23.55.55,0,0,0,.27-.44.34.34,0,0,0-.06-.2.62.62,0,0,0-.18-.19,2.48,2.48,0,0,0-.84-.28h0a3.49,3.49,0,0,1-.79-.24,1.41,1.41,0,0,1-.57-.48,1,1,0,0,1-.14-.51,1.15,1.15,0,0,1,.49-.9,1.8,1.8,0,0,1,1.06-.32,2.42,2.42,0,0,1,1.34.49.32.32,0,1,1-.35.53,1.75,1.75,0,0,0-1-.39,1.22,1.22,0,0,0-.69.2.51.51,0,0,0-.23.39.29.29,0,0,0,0,.17.53.53,0,0,0,.17.16,2.13,2.13,0,0,0,.77.27h0a4,4,0,0,1,.85.26,1.53,1.53,0,0,1,.61.51.94.94,0,0,1,.15.53,1.18,1.18,0,0,1-.53,1,1.93,1.93,0,0,1-1.14.35,2.65,2.65,0,0,1-1.57-.62A.33.33,0,0,1,192.71,332.2Z" style="fill:#263238"></path><path d="M198.23,330.53a.35.35,0,0,1-.34.34h-.16v1.71a.35.35,0,0,1,.34.35.33.33,0,0,1-.34.33.68.68,0,0,1-.68-.68v-1.71h-.18a.34.34,0,0,1-.34-.34.34.34,0,0,1,.34-.34h.18v-.89a.34.34,0,0,1,.34-.34.33.33,0,0,1,.34.34v.89h.16A.34.34,0,0,1,198.23,330.53Z" style="fill:#263238"></path><path d="M198.84,331.73a1.53,1.53,0,0,1,1.51-1.54,1.48,1.48,0,0,1,1.48,1.43v0s0,0,0,.05a.3.3,0,0,1-.32.25h-1.95a.76.76,0,0,0,.2.4,1,1,0,0,0,.6.28,1,1,0,0,0,.63-.15.35.35,0,0,1,.47,0,.28.28,0,0,1,0,.4,1.56,1.56,0,0,1-1.1.4A1.53,1.53,0,0,1,198.84,331.73Zm.68-.3h1.74a1,1,0,0,0-.91-.66A.85.85,0,0,0,199.52,331.43Z" style="fill:#263238"></path><path d="M205.08,330.68l-1,2.39,0,0h0l0,0h0l0,0h0l0,0h-.26l-.06,0h0l0,0h0s0,0,0,0h0s0,0,0,0l-1-2.39a.31.31,0,0,1,.18-.42.33.33,0,0,1,.41.18l.7,1.68.72-1.68a.32.32,0,0,1,.41-.18A.32.32,0,0,1,205.08,330.68Z" style="fill:#263238"></path><path d="M205.83,331.73a1.51,1.51,0,0,1,1.5-1.54,1.47,1.47,0,0,1,1.48,1.43v0s0,0,0,.05a.29.29,0,0,1-.32.25h-1.95a.78.78,0,0,0,.21.4.94.94,0,0,0,.59.28,1.05,1.05,0,0,0,.64-.15.34.34,0,0,1,.46,0,.28.28,0,0,1,0,.4,1.54,1.54,0,0,1-1.1.4A1.51,1.51,0,0,1,205.83,331.73Zm.67-.3h1.74a1,1,0,0,0-.91-.66A.86.86,0,0,0,206.5,331.43Z" style="fill:#263238"></path><path d="M212.35,331.47v1.47a.32.32,0,0,1-.32.32.33.33,0,0,1-.33-.32v-1.47a.63.63,0,0,0-.64-.62.61.61,0,0,0-.61.62v1.47a.13.13,0,0,1,0,.06.33.33,0,0,1-.33.26.32.32,0,0,1-.33-.32v-2.42a.33.33,0,0,1,.33-.33.32.32,0,0,1,.3.19,1.21,1.21,0,0,1,.65-.19A1.28,1.28,0,0,1,212.35,331.47Z" style="fill:#263238"></path><path d="M213.4,332.39a.33.33,0,0,1,.47-.05,1.18,1.18,0,0,0,.67.27.84.84,0,0,0,.42-.12.24.24,0,0,0,.11-.18.12.12,0,0,0,0-.07s0,0-.08-.07a1.35,1.35,0,0,0-.49-.17h0a2.74,2.74,0,0,1-.53-.16,1,1,0,0,1-.42-.36.71.71,0,0,1-.11-.39.86.86,0,0,1,.36-.67,1.34,1.34,0,0,1,.76-.23,1.54,1.54,0,0,1,.92.34.33.33,0,0,1,.1.45.32.32,0,0,1-.45.09,1.06,1.06,0,0,0-.57-.23.65.65,0,0,0-.37.11c-.08.06-.1.11-.1.14s0,0,0,.05,0,0,.06.07a1.25,1.25,0,0,0,.45.14h0a2.18,2.18,0,0,1,.58.18.93.93,0,0,1,.43.36.73.73,0,0,1,.12.41.89.89,0,0,1-.39.71,1.43,1.43,0,0,1-.8.24,1.7,1.7,0,0,1-1.09-.42A.32.32,0,0,1,213.4,332.39Z" style="fill:#263238"></path><path d="M339.46,326.1a.47.47,0,1,1-.47.47A.47.47,0,0,1,339.46,326.1Z"></path><path d="M340.91,326.1a.47.47,0,1,1-.47.47A.47.47,0,0,1,340.91,326.1Z"></path><path d="M342.36,326.1a.47.47,0,1,1,0,.94.47.47,0,0,1,0-.94Z"></path><polygon points="159.87 345.04 177.57 344.83 192.21 344.7 221.48 344.6 250.75 344.7 265.38 344.82 280.02 345.04 265.38 345.26 250.75 345.38 221.48 345.48 192.21 345.38 177.57 345.26 159.87 345.04" style="fill:#263238"></polygon><path d="M159.87,349.09c7.1-.18,17.27-.27,24.37-.34l21.29-.1,21.3.1,10.65.12,10.65.22-10.65.22-10.65.12-21.3.1-21.29-.1C177.14,349.36,167,349.27,159.87,349.09Z" style="fill:#263238"></path><path d="M159.87,353.14c4.74-.18,12.55-.27,17.29-.34s9.48-.07,14.22-.1,9.48,0,14.22.1l7.11.12c2.37.07,4.74.12,7.11.22-2.37.1-4.74.14-7.11.21l-7.11.13c-4.74.07-9.48.07-14.22.1s-9.48,0-14.22-.1S164.61,353.32,159.87,353.14Z" style="fill:#263238"></path><g id="freepik--xsrjP0--inject-75"><path d="M163,368a.51.51,0,0,1-.35-.11l-.1-.07a.48.48,0,0,0-.29-.12.22.22,0,0,1-.18-.06.23.23,0,0,1-.07-.2V365a.29.29,0,0,1,.16-.29,2.52,2.52,0,0,0,.92-1c.08-.13.17-.26.26-.38a2.25,2.25,0,0,0,.4-1.69.4.4,0,0,1,.35-.48.55.55,0,0,1,.64.23,3.23,3.23,0,0,1,.37,1.1,2,2,0,0,1-.06.65,2.74,2.74,0,0,0,0,.28c0,.16-.05.31-.08.46v0h2c.14,0,.55,0,.63.4a.69.69,0,0,1-.3.72.52.52,0,0,1,.16.37.69.69,0,0,1-.31.56h0a.53.53,0,0,1,.14.47.66.66,0,0,1-.33.48.56.56,0,0,1,.14.36.62.62,0,0,1-.29.5l-.09.06a.75.75,0,0,1-.44.12H163Zm-.65-.64a.92.92,0,0,1,.4.18l.09.06,0,0s.07,0,.16,0l3.16,0a.42.42,0,0,0,.25,0l.09-.06a.33.33,0,0,0,.15-.23.29.29,0,0,0-.14-.21.21.21,0,0,1-.11-.18.23.23,0,0,1,.11-.19.34.34,0,0,1,.11,0,.39.39,0,0,0,.23-.26.28.28,0,0,0,0-.18c-.09,0-.23-.09-.23-.25a.27.27,0,0,1,.24-.26.34.34,0,0,0,.2-.28.19.19,0,0,0-.08-.16c-.19,0-.22-.17-.21-.25s.05-.2.23-.23a.35.35,0,0,0,.21-.39s0-.13-.29-.13h-2a.33.33,0,0,1-.27,0l-.09-.06.06-.31a3.35,3.35,0,0,0,.07-.44l.06-.31a1.7,1.7,0,0,0,0-.54,3,3,0,0,0-.33-1,.25.25,0,0,0-.26-.05c-.11,0-.1,0-.09.11a2.56,2.56,0,0,1-.47,1.93l-.24.36a2.93,2.93,0,0,1-1,1.1Zm0,.07-.16,0h.17A.06.06,0,0,0,162.34,367.41Z" style="fill:#c7c7c7"></path><path d="M159.91,368.2a.33.33,0,0,1-.24-.08.34.34,0,0,1-.09-.27c0-.37,0-.74,0-1.12V366c0-.39,0-.78,0-1.17a.28.28,0,0,1,.31-.32c.62,0,1.23,0,1.85,0a.28.28,0,0,1,.31.32c0,1,0,2,0,3.05a.34.34,0,0,1-.08.25.35.35,0,0,1-.26.09h-1.8Zm0-1.86v.39c0,.38,0,.75,0,1.12h1.79c0-1,0-2,0-3-.61,0-1.2,0-1.78,0v1.5Z" style="fill:#c7c7c7"></path></g><path d="M174.86,362.91v4.52a.43.43,0,0,1-.85,0v-3.77l-.3.18a.46.46,0,0,1-.22.06.43.43,0,0,1-.36-.21.41.41,0,0,1,.14-.58l.94-.56h0s0,0,0,0h.32l.05,0,0,0,0,0,0,0,0,0,0,0v0a0,0,0,0,1,0,0s0,0,0,0a.06.06,0,0,0,0,0v0a.11.11,0,0,0,0,.06Z" style="fill:#c7c7c7"></path><path d="M179.3,367.43a.42.42,0,0,1-.42.42h-2.73a.37.37,0,0,1-.31-.14.41.41,0,0,1,0-.59l2.26-2.06a.93.93,0,0,0,.33-.73,1,1,0,0,0-.26-.67,1,1,0,0,0-.73-.32,1,1,0,0,0-.67.25l-.24.22a.42.42,0,0,1-.56-.63l.24-.21a1.75,1.75,0,0,1,1.23-.48,1.83,1.83,0,0,1,1.36.61,1.8,1.8,0,0,1,.48,1.23,1.83,1.83,0,0,1-.61,1.36L177.24,367h1.64A.42.42,0,0,1,179.3,367.43Z" style="fill:#c7c7c7"></path><g id="freepik--xsrjp0--inject-75"><path d="M195.18,361.39a.51.51,0,0,1,.35.11l.1.07a.48.48,0,0,0,.29.12.22.22,0,0,1,.18.06.23.23,0,0,1,.07.2v2.4a.29.29,0,0,1-.16.29,2.45,2.45,0,0,0-.92,1c-.09.13-.17.26-.26.38a2.25,2.25,0,0,0-.4,1.69.4.4,0,0,1-.35.48.57.57,0,0,1-.65-.23,3.47,3.47,0,0,1-.36-1.1,1.78,1.78,0,0,1,.06-.65,2.74,2.74,0,0,1,.05-.28,2.33,2.33,0,0,1,.08-.46v0h-2c-.14,0-.54,0-.62-.4a.69.69,0,0,1,.3-.72.49.49,0,0,1-.16-.37.67.67,0,0,1,.31-.56h0a.53.53,0,0,1-.14-.47.66.66,0,0,1,.33-.48.56.56,0,0,1-.14-.36.62.62,0,0,1,.29-.5l.09-.06a.74.74,0,0,1,.44-.12h3.2Zm.65.64a.87.87,0,0,1-.4-.18l-.09-.06,0,0s-.07,0-.16,0l-3.16,0a.42.42,0,0,0-.25,0l-.09.06c-.1.08-.15.15-.15.23a.29.29,0,0,0,.14.21.21.21,0,0,1,.11.18.26.26,0,0,1-.11.19.38.38,0,0,1-.12,0,.37.37,0,0,0-.22.26.23.23,0,0,0,0,.18c.09,0,.23.09.23.25a.28.28,0,0,1-.24.26.34.34,0,0,0-.2.28.16.16,0,0,0,.08.15c.19.06.22.18.21.26a.24.24,0,0,1-.23.23.35.35,0,0,0-.21.39s0,.13.29.13h2a.33.33,0,0,1,.27,0l.09.06-.06.31c0,.15-.06.29-.08.44a2.87,2.87,0,0,1-.05.31,1.46,1.46,0,0,0-.05.54,3,3,0,0,0,.33,1c0,.05.14.08.26.05s.1,0,.09-.11a2.6,2.6,0,0,1,.46-1.93c.09-.11.17-.24.25-.36a2.85,2.85,0,0,1,1-1.1Zm0-.07.16,0h-.17A.06.06,0,0,0,195.84,362Z" style="fill:#c7c7c7"></path><path d="M198.27,361.17a.29.29,0,0,1,.32.35v3a.31.31,0,0,1-.07.25.33.33,0,0,1-.23.08c-.62,0-1.23,0-1.85,0a.28.28,0,0,1-.31-.32c0-1,0-2,0-3.05a.34.34,0,0,1,.08-.25.35.35,0,0,1,.26-.09h1.8Zm0,1.86v-1.51h-1.78c0,1,0,2,0,3h1.78V363Z" style="fill:#c7c7c7"></path></g><path d="M205.77,364.52a1.91,1.91,0,0,1,.56,1.35,1.91,1.91,0,0,1-1.9,1.9h0a1.84,1.84,0,0,1-1.33-.56.41.41,0,0,1,0-.61.43.43,0,0,1,.61,0,1,1,0,0,0,1.47,0,1.08,1.08,0,0,0,.3-.73,1,1,0,0,0-.3-.73,1,1,0,0,0-.73-.3,1,1,0,0,0-.74.3.43.43,0,0,1-.61,0L203,365s0,0,0,0a.05.05,0,0,0,0,0v-.06h0a.28.28,0,0,1,0-.13l.23-2a.44.44,0,0,1,.19-.3l0,0h0a.46.46,0,0,1,.2,0h2.26a.44.44,0,1,1,0,.87H204l-.1.75a2.31,2.31,0,0,1,.52-.06A1.89,1.89,0,0,1,205.77,364.52Z" style="fill:#c7c7c7"></path><rect x="248.05" y="43.2" width="3.91" height="54.7" rx="1.25" transform="translate(320.55 -179.45) rotate(90)" style="fill:#455a64"></rect><circle cx="250" cy="418.06" r="7.07" transform="translate(-112.54 92.73) rotate(-17.22)" style="fill:#455a64"></circle></g><g id="freepik--Character--inject-75"><path d="M237.86,461.45c2.2.74,65.45,1,67.86-.55.92-.57,1.49-9.78,1.86-20.93.09-2.4.15-4.89.21-7.41l5.13-33.74-42.28-.27-4,33.74.16,7.42s-24.25,10.75-26.72,12.7S235.65,460.7,237.86,461.45Z" style="fill:#f7a9a0"></path><path d="M237.86,461.45c2.2.74,65.45,1,67.86-.55,1.12-.7,1.73-14.15,2.07-28.34l-41.14-.27.16,7.42s-24.25,10.75-26.72,12.7S235.65,460.7,237.86,461.45Z" style="fill:#37474f"></path><path d="M237.86,461.45c2.2.74,65.45,1,67.86-.55.92-.57,1.49-9.78,1.86-20.93l-40.77-.26s-24.25,10.75-26.72,12.7S235.65,460.7,237.86,461.45Z" style="fill:#00BFA6"></path><path d="M306.3,459.23c-.17.95-.36,1.54-.57,1.67-2.43,1.51-65.66,1.29-67.88.54s-.22-7.09,2.23-9a28.73,28.73,0,0,1,3.78-2.1l.3,0s7.92-.14,8.69,8.83Z" style="fill:#fff"></path><path d="M238.77,458.92c10.6-.22,53.39-.12,63.89.46.08,0,.08.07,0,.07-10.51.45-53.29,0-63.89-.36C238.55,459.09,238.55,458.92,238.77,458.92Z" style="fill:#263238"></path><path d="M244.16,450.14a8.52,8.52,0,0,1,6.34,2.62,8.26,8.26,0,0,1,2.35,5.66.07.07,0,0,1-.13,0,9.84,9.84,0,0,0-8.56-8.14A.07.07,0,0,1,244.16,450.14Z" style="fill:#263238"></path><path d="M262.7,440.75c4.24,0,9.15,1.47,11.78,4.95.1.14-.09.28-.22.22a57.93,57.93,0,0,0-11.64-4.64A.27.27,0,0,1,262.7,440.75Z" style="fill:#263238"></path><path d="M259.42,442c4.24,0,9.15,1.47,11.78,5,.1.13-.09.28-.22.21a58.52,58.52,0,0,0-11.64-4.64A.27.27,0,0,1,259.42,442Z" style="fill:#263238"></path><path d="M256.13,443.28c4.25,0,9.16,1.48,11.79,5,.1.14-.09.28-.22.22a58.52,58.52,0,0,0-11.64-4.64A.27.27,0,0,1,256.13,443.28Z" style="fill:#263238"></path><path d="M252.85,444.55c4.25,0,9.16,1.47,11.79,4.95.1.14-.09.28-.22.21a59.13,59.13,0,0,0-11.64-4.64A.27.27,0,0,1,252.85,444.55Z" style="fill:#263238"></path><path d="M300,449.3c4.76,0,4.72,7.43-.05,7.4S295.22,449.27,300,449.3Z" style="fill:#fff"></path><path d="M258.47,435.64c2.28,3,5.76,4.83,8.77,6.93a.53.53,0,0,0,.77-.34.11.11,0,0,0,.13-.12,22.24,22.24,0,0,0-3.82-10.86c-1.32-1.86-4-3.61-6.17-1.84S257.14,433.91,258.47,435.64Zm-.19-3.52c.44-4.62,4.59-1.05,5.51.35a23.24,23.24,0,0,1,1.54,2.87c1,2,1.62,4.18,2.37,6.29-1.42-1.12-2.92-2.11-4.38-3.18C261.59,437.18,258,434.66,258.28,432.12Z" style="fill:#263238"></path><path d="M283.22,439.46c-.33-2.78-3.49-3.39-5.72-3a22.18,22.18,0,0,0-10.28,5.18.11.11,0,0,0,0,.18.51.51,0,0,0,.31.77c3.63.58,7.44,1.64,11.14,1.09C280.83,443.4,283.52,442.08,283.22,439.46Zm-10,2.92c-1.79-.24-3.56-.57-5.36-.74,2-1,4-2.09,6.08-2.89a22.27,22.27,0,0,1,3.09-1c1.64-.38,7.1-.07,4.22,3.56C279.66,443.31,275.36,442.67,273.22,442.38Z" style="fill:#263238"></path><path d="M375,242.9S326,326.43,324.63,332.29c-2,9-16.49,97.93-16.49,97.93L267,429.48s5.53-77.71,13.86-103.56c6-18.62,46.46-81.23,46.46-81.23Z" style="fill:#f7a9a0"></path><path d="M351,430.55l38.88-10.2S353.18,332.93,353.54,327c.32-5.29,25.1-45.39,28-58.88,3.09-14.18-2.89-28.26-9.61-36.13L327.3,244.69s3.78,8.21,10.72,13.4c0,0-29.83,49.81-30.6,66.21S351,430.55,351,430.55Z" style="fill:#f7a9a0"></path><path d="M331.64,468.47c2.33.15,65.07-16.39,67-18.47a.88.88,0,0,0,.14-.43c.25-2.05-3-9.76-5.21-19.62-.14-.63-1.32-3.62-3-7.67-4.55-11.1-12.68-30.17-12.68-30.17l-40.42,10.36,14.54,30.47,2,7.13s-20.72,16.58-22.61,19.09S329.32,468.31,331.64,468.47Z" style="fill:#f7a9a0"></path><path d="M331.64,468.47c2.33.15,65.07-16.39,67-18.47a.88.88,0,0,0,.14-.43c.25-2.05-3-9.76-5.21-19.62-.14-.63-1.32-3.62-3-7.67l-38.56,10.66,2,7.13s-20.72,16.58-22.61,19.09S329.32,468.31,331.64,468.47Z" style="fill:#37474f"></path><path d="M331.64,468.47c2.33.16,65.07-16.39,67-18.47.75-.79-.88-9.27-5.05-20.05l-39.5,10.13s-20.72,16.56-22.61,19.07S329.32,468.3,331.64,468.47Z" style="fill:#00BFA6"></path><path d="M398.67,450c-2,2.09-64.7,18.64-67,18.48s-2-6.81-.15-9.32a31.73,31.73,0,0,1,3.14-3h0l.26-.09s7.27-1.51,10.69,6.3l53.24-13.54A1.9,1.9,0,0,1,398.67,450Z" style="fill:#fff"></path><path d="M331.88,465.79c10.2-2.92,51.6-13.71,61.9-15.82.08,0,.1,0,0,.07-10.05,3.11-51.53,13.57-61.87,15.92C331.71,466,331.67,465.85,331.88,465.79Z" style="fill:#263238"></path><path d="M334.86,455.93a8.54,8.54,0,0,1,6.79.91,8.27,8.27,0,0,1,3.72,4.89c0,.06-.1.09-.13,0a9.84,9.84,0,0,0-10.34-5.7A.07.07,0,0,1,334.86,455.93Z" style="fill:#263238"></path><path d="M350.39,442.13c4.1-1.12,9.24-.91,12.66,1.79.13.1,0,.29-.16.26a59.12,59.12,0,0,0-12.43-1.53A.27.27,0,0,1,350.39,442.13Z" style="fill:#263238"></path><path d="M347.54,444.19c4.1-1.12,9.23-.91,12.66,1.79.13.1,0,.29-.16.26a59.12,59.12,0,0,0-12.43-1.53A.27.27,0,0,1,347.54,444.19Z" style="fill:#263238"></path><path d="M344.69,446.25c4.1-1.12,9.24-.91,12.66,1.79.13.1,0,.29-.16.26a59.13,59.13,0,0,0-12.44-1.53A.27.27,0,0,1,344.69,446.25Z" style="fill:#263238"></path><path d="M341.84,448.31c4.1-1.13,9.24-.91,12.66,1.79.13.1,0,.29-.16.26a59.12,59.12,0,0,0-12.43-1.53A.27.27,0,0,1,341.84,448.31Z" style="fill:#263238"></path><path d="M388.64,440.91c4.61-1.19,6.45,6,1.84,7.16S384,442.09,388.64,440.91Z" style="fill:#fff"></path><path d="M345,438.26c3,2.28,6.8,3.21,10.25,4.47.36.13.64-.21.66-.52.06,0,.12-.07.09-.15a22.27,22.27,0,0,0-6.45-9.54c-1.75-1.46-4.81-2.46-6.44-.2S343.27,436.92,345,438.26Zm-1.07-3.35c-.75-4.58,4.17-2.19,5.41-1.07a24.92,24.92,0,0,1,2.22,2.38c1.45,1.73,2.63,3.63,3.9,5.49-1.66-.73-3.36-1.3-5-2C348.41,439,344.34,437.43,343.93,434.91Z" style="fill:#263238"></path><path d="M369.91,435.65c-1-2.6-4.23-2.38-6.28-1.4a22.22,22.22,0,0,0-8.63,7.63.11.11,0,0,0,.06.17.51.51,0,0,0,.5.66c3.66-.36,7.61-.3,11-1.78C368.61,440.07,370.87,438.11,369.91,435.65ZM361,441c-1.79.22-3.59.35-5.37.64a66.44,66.44,0,0,1,5.13-4.34,24.67,24.67,0,0,1,2.75-1.76c1.48-.78,6.84-1.86,5,2.38C367.45,440.29,363.13,440.76,361,441Z" style="fill:#263238"></path><path d="M372,232l-48.25,13.47S282,309.34,277.38,320c-.94,2.16,83.55,16.43,84.59,13,.85-2.76,23.84-47.28,22.82-70.94C384.09,245.64,372,232,372,232Z" style="fill:#455a64"></path><path d="M327.17,285.22c.27-4.81.61-9.63,1.09-14.43,0-.28.45-.28.44,0-.18,4.82-.5,9.63-.88,14.44s-.89,9.61-1.24,14.42c0,.1-.15.1-.14,0C326.75,294.85,326.89,290,327.17,285.22Z" style="fill:#263238"></path><path d="M311.25,311.06c.64-1.35,1.37-2.66,2.08-4s1.37-2.68,2.07-4q2.22-4.21,4.37-8.46c.08-.16.38,0,.3.13q-3.45,7.42-6.75,14.92c-2,4.58-4.09,9.35-4.28,14.39-.2,5.25,1.71,10.31,3.52,15.2,1.89,5.12,3.77,10.26,5.49,15.43,1,2.94,2.11,5.86,3,8.83.42,1.45,1,2.87,1.44,4.31s1,3,1.5,4.52c0,.09-.11.12-.15,0-.5-1.32-1.05-2.62-1.59-3.92s-1-2.74-1.61-4.07c-1.12-2.54-2.11-5.14-3.13-7.71q-3.08-7.76-6-15.56c-1.87-5-3.87-10.08-4.08-15.41C307.22,320.56,309,315.67,311.25,311.06Z" style="fill:#263238"></path><path d="M351,178.27c2.46,9.74,7.06,21,4.81,31.16-1.78,8-7.64,14.28-14.1,18.89-14.21,10.13-35.91,15.53-50.05,2.26-5.65-5.3-9.05-18.06-2.77-24.28,3.23-3.18,7.54-4.65,11.52-6.66a18.34,18.34,0,0,0,10.12-12.27c2.95-11.1.43-18.27-.85-29.36a7.94,7.94,0,0,1,1.48-6.27,14.11,14.11,0,0,1,5.73-4.91,13.85,13.85,0,0,1,6.39-2.46c4.93-.49,10.48,3,14.78,5s6.7,4.6,8,9.29C347.8,165.18,349.36,171.74,351,178.27Z" style="fill:#263238"></path><path d="M353.19,182.65c-2.84-8.77-5.84-17.48-8.78-26.21a0,0,0,1,0-.09,0c2.22,7.25,4.33,14.53,6.64,21.76s5.08,14.22,6.72,21.48c3.67,16.29-11.79,26.41-25.86,28.47-.64.09-.42,1.1.22,1,12.3-2.2,26-9.38,27-23.43C359.57,198,355.5,189.83,353.19,182.65Z" style="fill:#263238"></path><path d="M310.31,157c0-.17-.29-.11-.27.07,1.44,9.08,4,19.53.46,28.42a23.29,23.29,0,0,1-8.65,10.75c-3.1,2.07-6.65,2.93-10,4.35-13.26,5.55-9.56,24.23,2,29.44.24.11.44-.3.2-.42-8.22-4.18-12.65-13.93-8.43-22.63,3.38-7,12.65-6.89,18.29-11.44C315.52,186.09,313.27,170,310.31,157Z" style="fill:#263238"></path><path d="M329.5,196.06c-4.59,12.59-20.29,36.63-28.59,43.93-3.58,3.15-33.63-1.73-46.89-8.7-3.68-1.93,14.93-14.82,19.34-15.88,3-.71,19.83,3.27,21.92,2,3.83-2.3,16.66-17.17,25.92-25.27C326.37,187.64,332.35,188.23,329.5,196.06Z" style="fill:#f7a9a0"></path><path d="M307.92,203.65l13.61,17.73s10.33-22.31,11.51-29.73c1.33-8.35-3.23-7.2-9.77-2.54S307.92,203.65,307.92,203.65Z" style="fill:#455a64"></path><path d="M311.6,201.81c2,2,7.3,9,8.19,10.09.46.6,2.21,3.07,2.68,3.67.06.07-.07.15-.13.08-.9-1.14-1.91-2.18-2.81-3.31s-6.51-8-8-10.45C311.48,201.83,311.56,201.77,311.6,201.81Z" style="fill:#263238"></path><path d="M322,234l1.32,11.73,48.92-13.61s-11.38-35.73-28.94-46c-8.78-5.12-16.34-2.2-19.72,4.31-.86,1.65-10.36,23.33-9.61,31.32C314.62,228.84,322,234,322,234Z" style="fill:#455a64"></path><path d="M325.07,194.32a.56.56,0,0,1-.38.68.56.56,0,1,1-.3-1.07A.55.55,0,0,1,325.07,194.32Zm5.89-2.21a.56.56,0,0,0-.38.69.55.55,0,0,0,.68.38.54.54,0,0,0,.38-.68A.56.56,0,0,0,331,192.11Zm6.57-1.81a.56.56,0,0,0-.38.68.55.55,0,0,0,.68.39.56.56,0,1,0-.3-1.07Zm6.57-1.82a.57.57,0,0,0-.38.69.55.55,0,0,0,.68.38.56.56,0,0,0,.39-.68A.57.57,0,0,0,344.1,188.48Zm-17.75-.27a.55.55,0,1,0,.29,1.07.55.55,0,0,0,.39-.68A.56.56,0,0,0,326.35,188.21Zm6.57-1.81a.55.55,0,0,0-.39.68.55.55,0,1,0,1.07-.29A.55.55,0,0,0,332.92,186.4Zm6.57-1.82a.57.57,0,0,0-.39.69.57.57,0,0,0,.69.38.55.55,0,0,0,.38-.68A.56.56,0,0,0,339.49,184.58Zm-19,21a.56.56,0,0,0-.38.69.55.55,0,0,0,.68.38.56.56,0,0,0,.39-.68A.56.56,0,0,0,320.53,205.57Zm6.58-1.81a.55.55,0,1,0,.68.39A.55.55,0,0,0,327.11,203.76Zm6.57-1.82a.56.56,0,0,0-.39.69.56.56,0,0,0,.68.38.55.55,0,0,0,.39-.68A.56.56,0,0,0,333.68,201.94Zm6.57-1.81a.55.55,0,1,0,.68.39A.55.55,0,0,0,340.25,200.13Zm6.57-1.82a.56.56,0,0,0-.39.69.56.56,0,0,0,.68.38.55.55,0,0,0,.39-.68A.56.56,0,0,0,346.82,198.31Zm6.57-1.81a.56.56,0,1,0,.3,1.07.56.56,0,0,0,.38-.68A.55.55,0,0,0,353.39,196.5Zm-30.9,3.36a.54.54,0,0,0-.38.68.55.55,0,1,0,1.06-.3A.55.55,0,0,0,322.49,199.86Zm6.57-1.82a.56.56,0,0,0-.38.69.55.55,0,0,0,.68.38.56.56,0,0,0,.39-.68A.56.56,0,0,0,329.06,198Zm6.57-1.81a.56.56,0,0,0-.38.68.55.55,0,0,0,.68.39.56.56,0,1,0-.3-1.07Zm6.58-1.82a.56.56,0,0,0-.39.69.56.56,0,0,0,.68.38.55.55,0,0,0,.39-.68A.56.56,0,0,0,342.21,194.41Zm6.57-1.81a.55.55,0,1,0,.68.39A.55.55,0,0,0,348.78,192.6Zm-32.1,24.62a.55.55,0,0,0-.39.68.56.56,0,1,0,1.07-.3A.56.56,0,0,0,316.68,217.22Zm6.57-1.82a.55.55,0,1,0,.29,1.07.55.55,0,0,0-.29-1.07Zm6.57-1.81a.56.56,0,1,0,.3,1.07.56.56,0,0,0,.38-.68A.55.55,0,0,0,329.82,213.59Zm6.57-1.82a.57.57,0,0,0-.39.69.57.57,0,0,0,.69.38.55.55,0,0,0,.38-.68A.56.56,0,0,0,336.39,211.77ZM343,210a.56.56,0,1,0,.68.39A.55.55,0,0,0,343,210Zm6.57-1.82a.57.57,0,0,0-.38.69.55.55,0,0,0,.68.38.56.56,0,0,0,.39-.68A.57.57,0,0,0,349.53,208.14Zm6.57-1.81a.56.56,0,0,0-.38.68.55.55,0,0,0,.68.39.56.56,0,1,0-.3-1.07Zm-37.46,5.17a.55.55,0,1,0,.68.39A.55.55,0,0,0,318.64,211.5Zm6.57-1.81a.55.55,0,0,0-.39.68.56.56,0,1,0,1.07-.3A.56.56,0,0,0,325.21,209.69Zm6.57-1.82a.55.55,0,1,0,.29,1.07.55.55,0,0,0-.29-1.07Zm6.57-1.81a.55.55,0,1,0,.68.39A.55.55,0,0,0,338.35,206.06Zm6.57-1.82a.57.57,0,0,0-.39.69.57.57,0,0,0,.69.38.55.55,0,0,0,.38-.68A.56.56,0,0,0,344.92,204.24Zm6.57-1.81a.56.56,0,1,0,.3,1.07.56.56,0,0,0,.38-.68A.55.55,0,0,0,351.49,202.43Zm6.17-1.24a.36.36,0,0,0,0,.1.5.5,0,0,0,.27.34C357.86,201.48,357.75,201.34,357.66,201.19Zm-38.27,25.86a.54.54,0,0,0-.38.68.55.55,0,1,0,1.06-.3A.55.55,0,0,0,319.39,227.05Zm6.57-1.82a.56.56,0,0,0-.38.69.55.55,0,0,0,.68.38.56.56,0,0,0,.39-.68A.56.56,0,0,0,326,225.23Zm6.57-1.81a.56.56,0,0,0-.38.68.55.55,0,0,0,1.07-.29A.56.56,0,0,0,332.53,223.42Zm6.58-1.82a.56.56,0,0,0-.39.69.56.56,0,0,0,.68.38.55.55,0,0,0,.39-.68A.56.56,0,0,0,339.11,221.6Zm6.57-1.81a.55.55,0,1,0,.68.39A.55.55,0,0,0,345.68,219.79Zm6.57-1.82a.56.56,0,0,0-.39.69.56.56,0,0,0,.68.38.55.55,0,0,0,.39-.68A.56.56,0,0,0,352.25,218Zm6.57-1.81a.55.55,0,1,0,.68.39A.55.55,0,0,0,358.82,216.16Zm6.28-1.61a.55.55,0,0,0-.1.48.57.57,0,0,0,.52.4C365.38,215.15,365.24,214.85,365.1,214.55Zm-50.32,8.6a.55.55,0,0,0-.39.68.56.56,0,1,0,1.07-.3A.56.56,0,0,0,314.78,223.15Zm6.57-1.82a.56.56,0,1,0,.3,1.07.56.56,0,0,0,.38-.68A.55.55,0,0,0,321.35,221.33Zm6.57-1.81a.56.56,0,0,0-.39.68.57.57,0,0,0,.69.39.57.57,0,0,0,.38-.69A.55.55,0,0,0,327.92,219.52Zm6.57-1.82a.56.56,0,0,0,.3,1.07.54.54,0,0,0,.38-.68A.55.55,0,0,0,334.49,217.7Zm6.57-1.81a.56.56,0,0,0-.38.68.55.55,0,0,0,.68.39.56.56,0,1,0-.3-1.07Zm6.58-1.82a.56.56,0,0,0-.39.69.56.56,0,0,0,.68.38.55.55,0,0,0,.39-.68A.56.56,0,0,0,347.64,214.07Zm6.57-1.81a.55.55,0,1,0,.68.39A.55.55,0,0,0,354.21,212.26Zm6.57-1.82a.56.56,0,0,0-.39.69.56.56,0,0,0,.68.38.55.55,0,0,0,.39-.68A.56.56,0,0,0,360.78,210.44ZM322.3,236.86l.12,1.08a.56.56,0,0,0,.37-.68A.58.58,0,0,0,322.3,236.86Zm6.38-1.8a.55.55,0,1,0,.68.39A.55.55,0,0,0,328.68,235.06Zm6.57-1.81a.55.55,0,1,0,.68.39A.55.55,0,0,0,335.25,233.25Zm6.57-1.82a.57.57,0,0,0-.39.69.57.57,0,0,0,.69.38.55.55,0,0,0,.38-.68A.56.56,0,0,0,341.82,231.43Zm6.57-1.81a.56.56,0,1,0,.68.39A.55.55,0,0,0,348.39,229.62ZM355,227.8a.56.56,0,0,0-.38.69.55.55,0,0,0,.68.38.54.54,0,0,0,.38-.68A.56.56,0,0,0,355,227.8Zm6.57-1.81a.56.56,0,0,0-.38.68.55.55,0,0,0,.68.39.56.56,0,1,0-.3-1.07Zm6.58-1.81a.55.55,0,1,0,.68.38A.55.55,0,0,0,368.11,224.18Zm-44,7a.55.55,0,1,0,.68.39A.55.55,0,0,0,324.07,231.16Zm6.57-1.81a.55.55,0,0,0-.39.68.56.56,0,1,0,1.07-.3A.56.56,0,0,0,330.64,229.35Zm6.57-1.82a.55.55,0,1,0,.68.39A.55.55,0,0,0,337.21,227.53Zm6.57-1.81a.55.55,0,1,0,.68.39A.55.55,0,0,0,343.78,225.72Zm6.57-1.82a.56.56,0,0,0-.39.69.56.56,0,0,0,.68.38.55.55,0,0,0,.39-.68A.56.56,0,0,0,350.35,223.9Zm6.57-1.81a.56.56,0,1,0,.3,1.07.56.56,0,0,0,.38-.68A.55.55,0,0,0,356.92,222.09Zm6.57-1.82a.56.56,0,0,0-.38.69.55.55,0,0,0,.68.38.54.54,0,0,0,.38-.68A.56.56,0,0,0,363.49,220.27ZM326.78,241a.55.55,0,1,0,.68.39A.55.55,0,0,0,326.78,241Zm6.57-1.81a.56.56,0,0,0-.39.68.57.57,0,0,0,.69.39.57.57,0,0,0,.38-.69A.55.55,0,0,0,333.35,239.18Zm6.57-1.82a.56.56,0,1,0,.68.39A.55.55,0,0,0,339.92,237.36Zm6.57-1.81a.56.56,0,1,0,.68.39A.55.55,0,0,0,346.49,235.55Zm6.57-1.82a.57.57,0,0,0-.38.69.55.55,0,0,0,.68.38.56.56,0,0,0,.39-.68A.57.57,0,0,0,353.06,233.73Zm6.58-1.81a.55.55,0,1,0,.68.39A.55.55,0,0,0,359.64,231.92Zm6.57-1.82a.56.56,0,0,0-.39.69.56.56,0,0,0,.68.38.55.55,0,0,0,.39-.68A.56.56,0,0,0,366.21,230.1Z" style="fill:#fff"></path><path d="M329.21,228.15a55.14,55.14,0,0,1,8.1-.8c1.35,0,2.7,0,4,.12l2,.06a8.71,8.71,0,0,0,2.1-.15c.06,0,.08.07,0,.09a14.71,14.71,0,0,1-1.93.48,13.92,13.92,0,0,1-1.93.14c-1.37,0-2.74,0-4.11,0-2.77,0-5.53.06-8.29.28C329.11,228.38,329.08,228.17,329.21,228.15Z" style="fill:#263238"></path><path d="M323.36,232.19a59.73,59.73,0,0,1,6.41-2.05c1.08-.27,2.18-.48,3.29-.67l1.59-.23c.58-.08,1.17-.08,1.76-.17.06,0,.08.08,0,.09-.55.1-1.08.29-1.62.42l-1.63.39c-1.09.26-2.17.54-3.26.79q-3.27.75-6.51,1.6C323.29,232.4,323.26,232.23,323.36,232.19Z" style="fill:#263238"></path><path d="M334.86,187.56c-.08,1-3.86,8.13-8.4,8.58-1.48.14-2.63-7.91-2.63-7.91l-.22-.57-3.09-8,8.85-7.7,1.29-1s.7,2.25,1.54,5.07l.12.41a4,4,0,0,1,.15.45c.13.42.26.85.38,1.28s.19.65.28,1,.18.69.28,1A55.8,55.8,0,0,1,334.86,187.56Z" style="fill:#f7a9a0"></path><path d="M332.2,175.94a17.3,17.3,0,0,1-8.59,11.72l-3.09-8,8.85-7.7,1.29-1S331.36,173.12,332.2,175.94Z" style="fill:#263238"></path><path d="M306.58,169.19c1.79,15,11,15.64,14.22,15.25,2.94-.35,12.9-1.93,12.68-17.05s-7.78-19-14.55-18.59S304.79,154.17,306.58,169.19Z" style="fill:#f7a9a0"></path><path d="M309,165.2c.35-.08.66-.22,1-.33a1.69,1.69,0,0,0,.94-.54.53.53,0,0,0-.07-.65,1.33,1.33,0,0,0-1.35-.15,2,2,0,0,0-1.14.83A.57.57,0,0,0,309,165.2Z" style="fill:#263238"></path><path d="M319,164.35c-.35,0-.68-.06-1-.09a1.65,1.65,0,0,1-1-.3.54.54,0,0,1-.08-.65,1.34,1.34,0,0,1,1.27-.47,2,2,0,0,1,1.31.55A.57.57,0,0,1,319,164.35Z" style="fill:#263238"></path><path d="M311.46,168.71s-.07.06-.06.1c.18,1,.21,2.21-.67,2.68,0,0,0,.06,0,0C311.85,171.22,311.8,169.64,311.46,168.71Z" style="fill:#263238"></path><path d="M310.4,167.77c-1.65.11-1.32,3.42.22,3.32S311.79,167.68,310.4,167.77Z" style="fill:#263238"></path><path d="M309.74,168.06c-.25.2-.47.55-.78.6s-.67-.27-.93-.59c0,0,0,0,0,0,0,.64.32,1.28.94,1.33s.92-.53,1-1.17C309.94,168.15,309.83,168,309.74,168.06Z" style="fill:#263238"></path><path d="M317.12,168.16s.09,0,.09.08c.1,1,.39,2.18,1.36,2.4,0,0,0,.06,0,.06C317.42,170.69,317.05,169.15,317.12,168.16Z" style="fill:#263238"></path><path d="M317.89,167c1.63-.34,2.19,2.94.68,3.26S316.53,167.26,317.89,167Z" style="fill:#263238"></path><path d="M318.61,167.07c.29.13.6.4.91.37s.57-.44.74-.82c0,0,.05,0,.06,0,.12.63,0,1.31-.55,1.54s-1-.27-1.28-.87C318.44,167.21,318.5,167,318.61,167.07Z" style="fill:#263238"></path><path d="M318.15,176.32c-.2.28-.39.65-.75.75a2.88,2.88,0,0,1-1.13-.06,0,0,0,0,0,0,.06,1.42,1.42,0,0,0,1.39.32,1.11,1.11,0,0,0,.63-1C318.26,176.28,318.18,176.28,318.15,176.32Z" style="fill:#263238"></path><path d="M313.42,173.15s0,1.55.07,2.27c0,.07.18.08.43.06,0,0,0,0,0,0a3.48,3.48,0,0,0,3.17-1.69c0-.07-.06-.14-.12-.08a5.2,5.2,0,0,1-3,1.27c-.08-.19.13-2.65,0-2.65a6.81,6.81,0,0,0-1.59.57c0-3.23.44-6.45.34-9.67a.1.1,0,0,0-.19,0,52,52,0,0,0-.81,10.4C311.73,174,313.15,173.3,313.42,173.15Z" style="fill:#263238"></path><path d="M313.87,175a4.24,4.24,0,0,0,1.7,1.28,2,2,0,0,0,1.15.06c.83-.23.84-1,.68-1.65a4.42,4.42,0,0,0-.39-1A5.47,5.47,0,0,1,313.87,175Z" style="fill:#263238"></path><path d="M315.57,176.27a2,2,0,0,0,1.15.06c.83-.23.84-1,.68-1.65A2,2,0,0,0,315.57,176.27Z" style="fill:#ff99ba"></path><path d="M311.62,149.42s11.95-7.87,20.42-1.49,3,18.65,3,18.65.88-14.55-6.64-17.36S311.62,149.42,311.62,149.42Z" style="fill:#00BFA6"></path><path d="M334.42,170.21a6.56,6.56,0,0,1-4.33-4.84,17.26,17.26,0,0,1-7.65-4.7c.15.31,1.22,2.57,1.8,3.7-10.28-.59-14.37-7.87-14.37-7.87a17.35,17.35,0,0,0-3.56,6.92s-.86-6.15,1.78-10.68c3.23-5.54,16.14-8.58,23-2.77C338.55,156.24,334.42,170.21,334.42,170.21Z" style="fill:#263238"></path><path d="M316.4,163.69a18.93,18.93,0,0,0,5.39,1.23s0,0,0,0a15.86,15.86,0,0,1-7.94-3.52,15.11,15.11,0,0,1-2.55-2.75,10.26,10.26,0,0,1-1.82-3.65c0-.1-.18-.07-.16,0a12.43,12.43,0,0,0,1.3,3.85,11.06,11.06,0,0,0,2.66,3,12.71,12.71,0,0,0,3.12,1.79" style="fill:#263238"></path><path d="M331.23,168.83s2.27-5.3,4.6-4.58,1.3,7.92-1,9.35a2.55,2.55,0,0,1-3.63-.65Z" style="fill:#f7a9a0"></path><path d="M335.48,166.31s.06,0,0,.06c-1.58,1.06-2.15,2.85-2.45,4.64a1.41,1.41,0,0,1,2-.81c.06,0,0,.1,0,.1a1.6,1.6,0,0,0-1.59.89,7.55,7.55,0,0,0-.52,1.54c-.05.17-.35.15-.33,0v0C332.1,170.45,333.17,167,335.48,166.31Z" style="fill:#263238"></path><g style="opacity:0.7000000000000001"><rect x="192.92" y="218.81" width="200.57" height="66.1" transform="translate(-26.12 34.07) rotate(-6.37)" style="fill:#00BFA6"></rect><path d="M210.7,246.5a6.84,6.84,0,0,1-1.95,1.08,7.1,7.1,0,1,1,1.95-1.08Z" style="fill:#fff"></path><path d="M212.32,244.7h0a7.25,7.25,0,0,1-1.62,1.79,6.67,6.67,0,0,1-1.46.88l-.49.2a7.38,7.38,0,0,1-2.51.44,7.05,7.05,0,0,1-3-.7,6.9,6.9,0,0,1-2.66-2.2.68.68,0,0,1-.13-.18c0-.23-.05-.46-.08-.69v-.05q-.18-1.6-.33-3.21a3.81,3.81,0,0,1,1.25-3.35c1-1,2.15-2.51,3.55-2.87a4.1,4.1,0,0,1,2,0h.1a3.06,3.06,0,0,1,.51.1h0a3.71,3.71,0,0,1,1.45.66l.06,0a2,2,0,0,1,.76.86,0,0,0,0,0,0,0l.07.16h0l.06.15.09.33c.15.6.27,1.16.38,1.7l.06.28c.06.33.13.66.2,1a1.89,1.89,0,0,0,0,.23.47.47,0,0,1,0,.17,13.63,13.63,0,0,0,1.1,3.26s0,0,0,0a7.63,7.63,0,0,0,.49.87l0,0Z" style="fill:#263238"></path><path d="M200.6,245.12a.68.68,0,0,1-.13-.18.16.16,0,0,1-.06-.08c0-.21,0-.41,0-.61v-.05c0-1.33-.07-2.66-.1-4,0,0,0,0,0,0C200.41,241.84,200.51,243.48,200.6,245.12Z" style="fill:#263238"></path><path d="M212.39,244.6a.61.61,0,0,1-.07.1h0l0,0a6.26,6.26,0,0,1-.56-.79,11.46,11.46,0,0,1-1.25-2.93q-.14-.45-.24-.93c-.07-.27-.13-.55-.18-.83s-.06-.28-.08-.42c-.08-.41-.14-.82-.2-1.22,0-.18-.05-.36-.07-.54v0a.09.09,0,0,1,0-.05s0,0,0,0h0s0,0,0,0a2.33,2.33,0,0,1,.05.28c.1.51.2,1,.3,1.58a3.24,3.24,0,0,0,.09.4c.05.28.11.57.17.85h0s0,0,0,0a.85.85,0,0,0,0,.17c.05.22.1.44.16.66a10.73,10.73,0,0,0,1.19,2.9s0,0,0,0A6,6,0,0,0,212.39,244.6Z" style="fill:#263238"></path><path d="M209.24,247.38l-.49.2a7.38,7.38,0,0,1-2.51.44.84.84,0,0,1-.2-.23,17.93,17.93,0,0,1-.35-2.2l0-.31c0-.1,0-.2,0-.3s0-.26,0-.39a.61.61,0,0,1,0-.14s0-.08,0-.12v0c0-.32,0-.61,0-.85,0,0,0-.08,0-.12,0-.34,0-.56,0-.56l.46.16,3.21,1.22,0,1.43,0,1.09v.18S209.19,247.08,209.24,247.38Z" style="fill:#f7a9a0"></path><path d="M205.6,244.33a5.07,5.07,0,0,0,3.54,2.35l0-2.52L206,242.94l-.46-.16Z" style="fill:#263238"></path><path d="M212,239.9c1,4.3-1.43,5.39-2.36,5.61s-3.74.77-5.2-3.4.22-6,2.12-6.56S210.93,235.59,212,239.9Z" style="fill:#f7a9a0"></path><path d="M210.31,239.17H210a.54.54,0,0,1-.31-.05.16.16,0,0,1,0-.19.4.4,0,0,1,.36-.18.54.54,0,0,1,.39.11A.17.17,0,0,1,210.31,239.17Z" style="fill:#263238"></path><path d="M207.4,240.07l.28-.13a.47.47,0,0,0,.25-.19.15.15,0,0,0,0-.19.43.43,0,0,0-.4,0,.63.63,0,0,0-.3.28A.17.17,0,0,0,207.4,240.07Z" style="fill:#263238"></path><path d="M210,240.38s0,0,0,0c.06.29.17.62.45.66,0,0,0,0,0,0C210.15,241.11,210,240.67,210,240.38Z" style="fill:#263238"></path><path d="M210.2,240c.47-.13.71.81.28.93S209.81,240.13,210.2,240Z" style="fill:#263238"></path><path d="M210.41,240c.09,0,.19.11.28.09s.15-.14.19-.26,0,0,0,0c0,.18,0,.38-.12.46s-.31,0-.4-.22S210.38,240,210.41,240Z" style="fill:#263238"></path><path d="M208.29,240.93s0,0,0,0c.08.29.11.64-.13.79,0,0,0,0,0,0C208.46,241.65,208.41,241.19,208.29,240.93Z" style="fill:#263238"></path><path d="M208,240.68c-.48.07-.31,1,.14,1S208.36,240.62,208,240.68Z" style="fill:#263238"></path><path d="M207.77,240.78c-.07.06-.12.17-.21.19s-.2-.06-.29-.15,0,0,0,0c0,.18.12.36.31.36s.25-.17.26-.36C207.83,240.8,207.8,240.75,207.77,240.78Z" style="fill:#263238"></path><path d="M208.94,243.14c.08.05.17.14.28.13a.88.88,0,0,0,.3-.13s0,0,0,0a.41.41,0,0,1-.35.23.32.32,0,0,1-.28-.22S208.92,243.13,208.94,243.14Z" style="fill:#263238"></path><path d="M209.91,241.79a6.35,6.35,0,0,1,.22.63s0,0-.12.06h0a1,1,0,0,1-1-.14s0,0,0,0a1.5,1.5,0,0,0,1,0c0-.06-.31-.71-.28-.72a1.66,1.66,0,0,1,.5,0c-.32-.89-.77-1.73-1.07-2.62a0,0,0,0,1,.05,0,15.37,15.37,0,0,1,1.27,2.77C210.47,241.86,210,241.81,209.91,241.79Z" style="fill:#263238"></path><path d="M210,242.34a1.24,1.24,0,0,1-.34.52.52.52,0,0,1-.31.14c-.25,0-.33-.19-.35-.39a1.37,1.37,0,0,1,0-.31A1.58,1.58,0,0,0,210,242.34Z" style="fill:#263238"></path><path d="M209.64,242.86a.52.52,0,0,1-.31.14c-.25,0-.33-.19-.35-.39A.58.58,0,0,1,209.64,242.86Z" style="fill:#ff99ba"></path><path d="M208.58,235s-4.08-1-5.76,1.65,1.05,5.42,1.05,5.42-1.71-3.9.07-5.43A8.65,8.65,0,0,1,208.58,235Z" style="fill:#00BFA6"></path><path d="M204.42,243a1.93,1.93,0,0,0,.7-1.76,5.09,5.09,0,0,0,1.62-2.06c0,.1-.07.82-.12,1.19a5.2,5.2,0,0,0,3.15-3.61,5.07,5.07,0,0,1,1.67,1.54,5.56,5.56,0,0,0-1.56-2.75c-1.44-1.19-5.29-.72-6.6,1.57C201.87,239.57,204.42,243,204.42,243Z" style="fill:#263238"></path><path d="M208.7,239.37a5.45,5.45,0,0,1-1.35.89s0,0,0,0a4.67,4.67,0,0,0,1.82-1.76,4.14,4.14,0,0,0,.42-1,3,3,0,0,0,.14-1.18s0,0,0,0a3.4,3.4,0,0,1,0,1.19,3.14,3.14,0,0,1-.42,1.1,3.48,3.48,0,0,1-.68.8Z" style="fill:#263238"></path><path d="M205.15,242.28s-1.15-1.22-1.72-.79.44,2.3,1.21,2.47a.75.75,0,0,0,.93-.55Z" style="fill:#f7a9a0"></path><path d="M203.73,242s0,0,0,0a1.88,1.88,0,0,1,1.14,1,.43.43,0,0,0-.63,0s0,0,0,0a.45.45,0,0,1,.52.08,2.56,2.56,0,0,1,.3.37s.11,0,.09,0h0C205.08,242.81,204.44,242,203.73,242Z" style="fill:#263238"></path><path d="M379.17,216.92a.47.47,0,1,1,.1.93.47.47,0,0,1-.1-.93Z"></path><path d="M380.61,216.76a.47.47,0,0,1,.52.41.47.47,0,0,1-.41.52.47.47,0,0,1-.11-.93Z"></path><path d="M382.06,216.6a.48.48,0,0,1,.52.41.47.47,0,1,1-.52-.41Z"></path><polygon points="203.9 265.6 221.47 263.42 236 261.68 265.08 258.33 294.18 255.18 308.74 253.68 323.3 252.28 308.78 254.11 294.25 255.86 265.17 259.21 236.07 262.35 221.51 263.85 203.9 265.6" style="fill:#263238"></polygon><path d="M204.35,269.62c7-1,17.13-2.18,24.18-3l21.15-2.46,21.18-2.26,10.6-1.06,10.6-1-10.56,1.4-10.57,1.31L249.78,265l-21.18,2.26C221.54,268,211.43,269,204.35,269.62Z" style="fill:#263238"></path><path d="M204.8,273.65c4.69-.71,12.44-1.66,17.14-2.26s9.42-1.12,14.12-1.68,9.43-1,14.15-1.47l7.08-.67c2.36-.19,4.72-.41,7.09-.57-2.34.36-4.7.67-7,1l-7.06.91c-4.7.6-9.41,1.12-14.12,1.68s-9.42,1-14.14,1.48S209.53,273.3,204.8,273.65Z" style="fill:#263238"></path><g id="freepik--xsrjp0--inject-75"><path d="M209.55,288.05a.56.56,0,0,1-.36-.07l-.1-.06a.5.5,0,0,0-.3-.09.23.23,0,0,1-.2,0,.22.22,0,0,1-.08-.19l-.28-2.38a.3.3,0,0,1,.13-.31,2.55,2.55,0,0,0,.8-1.08l.21-.41a2.2,2.2,0,0,0,.22-1.72.4.4,0,0,1,.29-.52.57.57,0,0,1,.67.15,3.47,3.47,0,0,1,.48,1.06,1.78,1.78,0,0,1,0,.65,2.83,2.83,0,0,0,0,.29,3.83,3.83,0,0,1,0,.47v0l2-.23c.14,0,.54-.06.67.33a.69.69,0,0,1-.22.75.47.47,0,0,1,.2.35.67.67,0,0,1-.24.59h0a.52.52,0,0,1,.2.45.7.7,0,0,1-.28.52.5.5,0,0,1,.18.34.64.64,0,0,1-.23.53l-.08.07a.76.76,0,0,1-.43.16l-3.15.36Zm-.71-.56a.86.86,0,0,1,.41.13l.1.05,0,0s.08,0,.16,0l3.14-.36c.13,0,.2,0,.25-.07l.08-.07a.31.31,0,0,0,.12-.24c0-.07-.06-.14-.16-.19a.22.22,0,0,1-.13-.18.27.27,0,0,1,.09-.2l.11-.06a.37.37,0,0,0,.19-.28.21.21,0,0,0-.07-.17c-.09,0-.24-.07-.25-.23a.27.27,0,0,1,.21-.28.38.38,0,0,0,.17-.3.19.19,0,0,0-.11-.15c-.18,0-.23-.14-.23-.23a.24.24,0,0,1,.21-.25.36.36,0,0,0,.16-.41c0-.06,0-.13-.3-.1h0l-2,.23a.39.39,0,0,1-.28,0l-.09-.06,0-.31a3.4,3.4,0,0,0,0-.45c0-.1,0-.21,0-.31a1.68,1.68,0,0,0,0-.55,3,3,0,0,0-.44-.94.28.28,0,0,0-.27,0c-.09,0-.09.05-.07.12a2.53,2.53,0,0,1-.25,2c-.07.13-.14.26-.2.4a2.83,2.83,0,0,1-.9,1.2Zm0,.06-.15.07.17,0Z" style="fill:#fff"></path><path d="M206.51,288.61a.34.34,0,0,1-.25-.05.38.38,0,0,1-.12-.26c0-.37-.08-.74-.12-1.11l-.09-.74c0-.39-.08-.77-.13-1.16a.31.31,0,0,1,0-.25.28.28,0,0,1,.22-.1l1.83-.21a.28.28,0,0,1,.24,0,.35.35,0,0,1,.11.23c.11,1,.22,2,.34,3a.32.32,0,0,1-.05.26.37.37,0,0,1-.24.11c-.6.06-1.19.12-1.78.2Zm-.2-1.85.05.39c0,.37.09.74.12,1.12h0l1.77-.2c-.12-1-.23-2-.34-3l-1.77.2c.05.4.09.77.13,1.14Z" style="fill:#fff"></path></g><path d="M220.35,283.45a1.91,1.91,0,0,1,.3,2.67,1.93,1.93,0,0,1-1.28.71,2,2,0,0,1-1.4-.41.44.44,0,0,1-.06-.61.43.43,0,0,1,.61-.07,1,1,0,0,0,.75.22,1,1,0,0,0,.92-1.15,1,1,0,0,0-.38-.68,1,1,0,0,0-.76-.23.4.4,0,0,1-.33-.1h0a.43.43,0,0,1-.08-.6l.69-.88-1.23.13a.43.43,0,0,1-.48-.38.44.44,0,0,1,.38-.48l2.25-.25a.44.44,0,0,1,.48.38.47.47,0,0,1,0,.21.75.75,0,0,1-.07.12l-.85,1.09A1.83,1.83,0,0,1,220.35,283.45Z" style="fill:#fff"></path><path d="M226.38,284.62a.42.42,0,0,1-.38.46h-.08l.07.58a.42.42,0,1,1-.84.09l-.06-.57-2.39.26h0a.37.37,0,0,1-.27-.06.41.41,0,0,1-.14-.58l2.43-3.81s0,0,0,0l0,0a.07.07,0,0,0,0,0l0,0,0,0s0,0,0,0l0,0h.28l0,0s0,0,0,0h0l0,0,0,0,0,0,0,0,0,.05v0a.09.09,0,0,1,0,.05s0,0,0,0v0l.34,3.07h.08A.43.43,0,0,1,226.38,284.62Zm-1.6-2.15-1.3,2,1.51-.17Z" style="fill:#fff"></path><g id="freepik--xsrjp0--inject-75"><path d="M240.81,277.94a.43.43,0,0,1,.35.07l.11.05a.47.47,0,0,0,.3.09.22.22,0,0,1,.19,0,.24.24,0,0,1,.09.19l.27,2.38a.29.29,0,0,1-.12.31,2.47,2.47,0,0,0-.81,1.09c-.07.13-.13.27-.21.41a2.21,2.21,0,0,0-.21,1.71.41.41,0,0,1-.3.52.55.55,0,0,1-.66-.15,3.52,3.52,0,0,1-.49-1,2.1,2.1,0,0,1,0-.66c0-.09,0-.19,0-.29s0-.31,0-.47h0l-2,.22c-.14,0-.54.06-.67-.33a.7.7,0,0,1,.22-.75.55.55,0,0,1-.2-.35.71.71,0,0,1,.25-.59h0a.54.54,0,0,1-.19-.45.67.67,0,0,1,.28-.52.56.56,0,0,1-.19-.34.62.62,0,0,1,.24-.53l.08-.07a.74.74,0,0,1,.42-.16l3.15-.36Zm.71.56a.91.91,0,0,1-.42-.14l-.1-.05,0,0s-.07,0-.16,0l-3.14.36c-.12,0-.19,0-.24.07l-.08.07c-.09.09-.14.17-.13.24a.31.31,0,0,0,.17.2.25.25,0,0,1,.13.17.24.24,0,0,1-.1.2.27.27,0,0,1-.1.06.33.33,0,0,0-.19.29.17.17,0,0,0,.06.16.26.26,0,0,1,.05.51.36.36,0,0,0-.17.31.18.18,0,0,0,.1.14.24.24,0,0,1,.24.23.24.24,0,0,1-.21.25.35.35,0,0,0-.16.41c0,.06,0,.13.3.1h0l2-.23a.42.42,0,0,1,.27,0l.1.06,0,.31,0,.45c0,.1,0,.21,0,.31a2,2,0,0,0,0,.55,3.14,3.14,0,0,0,.44.94c0,.05.15.07.27,0s.09-.05.08-.11a2.5,2.5,0,0,1,.24-2c.08-.13.14-.26.21-.4a2.86,2.86,0,0,1,.89-1.2Zm0-.07.16-.07-.17,0A.08.08,0,0,0,241.52,278.43Z" style="fill:#fff"></path><path d="M243.85,277.37a.34.34,0,0,1,.25.05.41.41,0,0,1,.11.26c0,.37.08.74.13,1.11l.08.74c0,.39.09.77.14,1.16a.35.35,0,0,1-.05.25.35.35,0,0,1-.22.11c-.62.06-1.23.13-1.84.21a.34.34,0,0,1-.24-.06.31.31,0,0,1-.1-.23c-.11-1-.23-2-.35-3a.39.39,0,0,1,.05-.27.38.38,0,0,1,.25-.11c.59-.06,1.18-.12,1.77-.2Zm.19,1.85,0-.39c-.05-.37-.09-.74-.13-1.11h0c-.61.08-1.19.14-1.77.2.12,1,.23,2,.34,3l1.77-.2c0-.4-.09-.77-.13-1.14Z" style="fill:#fff"></path></g><path d="M251.74,280a1.86,1.86,0,0,1,.7,1.27,1.92,1.92,0,0,1-.4,1.4,1.94,1.94,0,0,1-1.28.7,1.91,1.91,0,0,1-1.4-.4.45.45,0,0,1-.07-.61.43.43,0,0,1,.61-.07,1,1,0,0,0,.76.22,1.07,1.07,0,0,0,.7-.38,1,1,0,0,0-.16-1.46,1.06,1.06,0,0,0-.76-.22.4.4,0,0,1-.33-.1h0a.44.44,0,0,1-.08-.61l.69-.88-1.24.14a.43.43,0,0,1-.09-.86l2.24-.25a.43.43,0,0,1,.49.38.46.46,0,0,1,0,.21.34.34,0,0,1-.06.12l-.85,1.09A1.65,1.65,0,0,1,251.74,280Z" style="fill:#fff"></path><rect x="202.92" y="250.98" width="46.58" height="8.34" transform="translate(-26.9 26.66) rotate(-6.37)" style="fill:#455a64"></rect><path d="M208.64,258.2l-.31-2.72a.26.26,0,0,1,.23-.28h0l1.5-.16a.26.26,0,1,1,.05.51l-1.24.14.09.84,1.07-.12a.27.27,0,0,1,.29.23.26.26,0,0,1-.23.28L209,257l.12,1.11a.25.25,0,0,1-.23.28A.24.24,0,0,1,208.64,258.2Z" style="fill:#fff"></path><path d="M213.11,256.79l.1.91a.25.25,0,0,1-.22.27.26.26,0,0,1-.26-.17,1,1,0,0,1-.59.26,1.07,1.07,0,0,1-.82-.24,1.21,1.21,0,0,1-.4-.78,1.13,1.13,0,0,1,.22-.85,1,1,0,0,1,.74-.43,1.08,1.08,0,0,1,.64.13.28.28,0,0,1,.22-.23.26.26,0,0,1,.27.23Zm-.49.06a.7.7,0,0,0-.23-.46.58.58,0,0,0-.45-.14.55.55,0,0,0-.41.24.67.67,0,0,0-.12.49.68.68,0,0,0,.23.46.59.59,0,0,0,.45.13.57.57,0,0,0,.4-.23A.68.68,0,0,0,212.62,256.85Z" style="fill:#fff"></path><path d="M215.65,255.71l-.55,1.87,0,0h0l0,0h0l0,0h0l0,0h0l0,0h-.16l0,0h0s0,0,0,0h0l0,0h0s0,0,0,0l-1-1.7a.24.24,0,1,1,.43-.23l.67,1.19.39-1.31a.24.24,0,0,1,.29-.17A.23.23,0,0,1,215.65,255.71Z" style="fill:#fff"></path><path d="M216.77,257.21a1.15,1.15,0,0,1-.41-.78,1.14,1.14,0,0,1,.23-.84,1.08,1.08,0,0,1,.75-.44,1.06,1.06,0,0,1,.81.26,1.16,1.16,0,0,1,.41.78,1.1,1.1,0,0,1-.23.84,1,1,0,0,1-.73.44A1.11,1.11,0,0,1,216.77,257.21Zm.09-.83a.77.77,0,0,0,.22.47.64.64,0,0,0,.87-.1.76.76,0,0,0-.11-1,.64.64,0,0,0-.44-.13.68.68,0,0,0-.43.23A.75.75,0,0,0,216.86,256.38Z" style="fill:#fff"></path><path d="M220.57,255a.25.25,0,0,1-.22.27.42.42,0,0,0-.26.12.63.63,0,0,0-.19.24,1.39,1.39,0,0,0-.15.41l.1.88a.25.25,0,0,1-.5.05l-.2-1.81a.24.24,0,0,1,.22-.27.25.25,0,0,1,.28.21v0l.09-.1a1.07,1.07,0,0,1,.56-.25A.24.24,0,0,1,220.57,255Z" style="fill:#fff"></path><path d="M221.58,254.09a.25.25,0,1,1-.49.06v-.1a.25.25,0,0,1,.49-.05Zm.1.84.2,1.8a.25.25,0,0,1-.5,0l-.2-1.8a.25.25,0,0,1,.22-.28A.26.26,0,0,1,221.68,254.93Z" style="fill:#fff"></path><path d="M223.51,254.72a.27.27,0,0,1-.23.28h-.12l.14,1.29a.26.26,0,1,1,.06.51.52.52,0,0,1-.57-.45l-.14-1.29-.13,0a.27.27,0,0,1-.29-.23.26.26,0,0,1,.23-.28l.13,0-.07-.66a.25.25,0,0,1,.23-.29.26.26,0,0,1,.28.23l.07.67.12,0A.27.27,0,0,1,223.51,254.72Z" style="fill:#fff"></path><path d="M224.07,255.57a1.14,1.14,0,0,1,1-1.28,1.1,1.1,0,0,1,1.23.94v0a.06.06,0,0,1,0,0,.22.22,0,0,1-.21.21l-1.47.16a.64.64,0,0,0,.19.29.74.74,0,0,0,.47.16.78.78,0,0,0,.46-.17.27.27,0,0,1,.35,0,.21.21,0,0,1,0,.3,1.17,1.17,0,0,1-2-.63Zm.47-.29,1.31-.14a.75.75,0,0,0-.74-.41A.65.65,0,0,0,224.54,255.28Z" style="fill:#fff"></path><path d="M230.16,255.28l-1.12.13-.16.62a.25.25,0,0,1-.22.19h-.09a.27.27,0,0,1-.19-.32l.71-2.83a.28.28,0,0,1,.23-.19.26.26,0,0,1,.26.14l1.32,2.6a.26.26,0,0,1-.11.35l-.09,0a.24.24,0,0,1-.25-.13Zm-.25-.48-.48-1-.27,1Z" style="fill:#fff"></path><path d="M233.29,254.34l.13,1.1a.24.24,0,0,1-.22.27.24.24,0,0,1-.27-.21l-.12-1.11a.48.48,0,0,0-.53-.41.46.46,0,0,0-.41.52l.12,1.1v.05a.25.25,0,0,1-.22.22.25.25,0,0,1-.28-.21l-.12-1.1-.08-.72a.25.25,0,0,1,.22-.27.24.24,0,0,1,.24.12.87.87,0,0,1,.47-.2A1,1,0,0,1,233.29,254.34Z" style="fill:#fff"></path><path d="M234.16,254.94a.25.25,0,0,1,.34-.08.87.87,0,0,0,.53.15.63.63,0,0,0,.31-.12.16.16,0,0,0,.06-.15s0,0,0,0,0,0-.07,0a1,1,0,0,0-.38-.09h0a1.36,1.36,0,0,1-.41-.08.72.72,0,0,1-.35-.23.5.5,0,0,1-.11-.28.64.64,0,0,1,.21-.54,1,1,0,0,1,.55-.23,1.13,1.13,0,0,1,.72.18.25.25,0,0,1,.11.33.24.24,0,0,1-.33.1.77.77,0,0,0-.44-.12.45.45,0,0,0-.27.11c-.06,0-.07.09-.06.12a0,0,0,0,0,0,0,.1.1,0,0,0,.06,0,.81.81,0,0,0,.35.08h0a1.63,1.63,0,0,1,.45.09.74.74,0,0,1,.36.23.67.67,0,0,1,.12.29.69.69,0,0,1-.23.57,1,1,0,0,1-.58.25,1.37,1.37,0,0,1-.86-.22A.25.25,0,0,1,234.16,254.94Z" style="fill:#fff"></path><path d="M239.29,253.07l-.56,1.88s0,0,0,0h0l0,0h0l0,0h0l0,0h-.19l-.05,0h0l0,0h0l0,0h0l0,0-.43-.76-.24.83s0,0,0,0h0l0,0h0l0,0s0,0,0,0h-.19s0,0,0,0h0s0,0,0,0h0l0,0h0l0,0-1-1.7a.25.25,0,0,1,.1-.34.24.24,0,0,1,.32.11l.68,1.18.24-.81a.25.25,0,0,1,.21-.17.24.24,0,0,1,.24.12l.41.73.41-1.3a.23.23,0,0,1,.29-.17A.24.24,0,0,1,239.29,253.07Z" style="fill:#fff"></path><path d="M239.94,253.79a1.15,1.15,0,0,1,1-1.27,1.1,1.1,0,0,1,1.23.94v0s0,0,0,0-.09.19-.22.21l-1.46.16a.57.57,0,0,0,.19.29.73.73,0,0,0,.46.16.79.79,0,0,0,.47-.17.27.27,0,0,1,.35-.05.22.22,0,0,1,0,.3,1.14,1.14,0,0,1-.79.39A1.16,1.16,0,0,1,239.94,253.79Zm.48-.28,1.31-.14A.78.78,0,0,0,241,253,.67.67,0,0,0,240.42,253.51Z" style="fill:#fff"></path><path d="M244.13,252.41a.24.24,0,0,1-.21.27.42.42,0,0,0-.27.12.75.75,0,0,0-.19.24,1.3,1.3,0,0,0-.14.41l.09.88a.25.25,0,0,1-.22.27.24.24,0,0,1-.27-.22l-.21-1.81a.25.25,0,0,1,.22-.27.24.24,0,0,1,.28.21v0l.08-.1a1.07,1.07,0,0,1,.56-.25A.24.24,0,0,1,244.13,252.41Z" style="fill:#fff"></path><path d="M220.49,238.69l-.77.09.15,1.35a.35.35,0,0,1-.31.38.34.34,0,0,1-.38-.3l-.41-3.68a.35.35,0,0,1,.3-.38h0l1.11-.12a1.34,1.34,0,1,1,.3,2.66Zm-.85-.6.77-.09a.64.64,0,1,0-.14-1.28l-.77.08Z" style="fill:#fff"></path><path d="M225.24,238.31l.14,1.22a.34.34,0,0,1-.29.37.36.36,0,0,1-.36-.24,1.45,1.45,0,0,1-.8.37,1.5,1.5,0,0,1-1.11-.34,1.66,1.66,0,0,1-.24-2.2,1.45,1.45,0,0,1,1-.58,1.39,1.39,0,0,1,.86.18.35.35,0,0,1,.3-.31.34.34,0,0,1,.37.3Zm-.66.07a1,1,0,0,0-.31-.61.73.73,0,0,0-.61-.19.71.71,0,0,0-.55.32.9.9,0,0,0-.17.66,1,1,0,0,0,.31.62.81.81,0,0,0,.61.18.83.83,0,0,0,.55-.31A.94.94,0,0,0,224.58,238.38Z" style="fill:#fff"></path><path d="M227.87,239.59a1.32,1.32,0,0,1-1.44-1.16l-.17-1.49a.33.33,0,0,1,.29-.36.34.34,0,0,1,.37.29l.17,1.49a.63.63,0,0,0,.7.57.66.66,0,0,0,.59-.71l-.17-1.49a.33.33,0,0,1,.29-.37.35.35,0,0,1,.37.29l.17,1.49A1.33,1.33,0,0,1,227.87,239.59Z" style="fill:#fff"></path><path d="M230.16,234.91a.36.36,0,0,1,.39.31l.41,3.67a.35.35,0,1,1-.7.08l-.41-3.68A.35.35,0,0,1,230.16,234.91Z" style="fill:#fff"></path><path d="M234.27,237.3l.14,1.22a.34.34,0,0,1-.29.37.35.35,0,0,1-.36-.23,1.45,1.45,0,0,1-1.91,0,1.58,1.58,0,0,1-.54-1.05,1.55,1.55,0,0,1,.3-1.14,1.42,1.42,0,0,1,1.86-.41.36.36,0,0,1,.3-.31.34.34,0,0,1,.37.3Zm-.66.07a.9.9,0,0,0-.31-.61.76.76,0,0,0-.61-.19.72.72,0,0,0-.55.32,1,1,0,0,0,.14,1.28.77.77,0,0,0,.61.18.76.76,0,0,0,.55-.31A.94.94,0,0,0,233.61,237.37Z" style="fill:#fff"></path><path d="M237.57,238.16l-.42-3.68a.35.35,0,0,1,.31-.38l.73-.08a2.19,2.19,0,0,1,.49,4.36l-.73.08A.34.34,0,0,1,237.57,238.16Zm.65-.43.38,0a1.5,1.5,0,0,0-.33-3l-.38,0Z" style="fill:#fff"></path><path d="M242.26,234a.34.34,0,1,1-.68.07V234a.33.33,0,0,1,.3-.37.32.32,0,0,1,.37.3Zm.12,1.12.27,2.43a.33.33,0,0,1-.29.38.34.34,0,0,1-.38-.3l-.27-2.43a.33.33,0,0,1,.3-.38A.32.32,0,0,1,242.38,235.16Z" style="fill:#fff"></path><path d="M243.37,236.28a1.6,1.6,0,0,1,1.41-1.74,1.65,1.65,0,0,1,1,.24.34.34,0,0,1,.12.45.33.33,0,0,1-.46.11,1,1,0,0,0-.62-.13.9.9,0,1,0,.2,1.79,1,1,0,0,0,.57-.27.35.35,0,0,1,.48,0,.35.35,0,0,1,0,.47,1.72,1.72,0,0,1-1,.44A1.59,1.59,0,0,1,243.37,236.28Z" style="fill:#fff"></path><path d="M247.28,237.07l-.41-3.67a.36.36,0,0,1,.3-.39.35.35,0,0,1,.39.31l.24,2.15,1.14-1.42a.35.35,0,0,1,.48-.05.34.34,0,0,1,.06.49l-.83,1,1.09,1a.35.35,0,0,1,0,.49.29.29,0,0,1-.21.11.31.31,0,0,1-.27-.1l-1-1-.31.38.06.55a.35.35,0,0,1-.69.07Z" style="fill:#fff"></path><path d="M250.26,235.51a1.55,1.55,0,0,1,1.35-1.73,1.49,1.49,0,0,1,1.66,1.28v0s0,0,0,.06a.29.29,0,0,1-.29.28l-2,.22a.78.78,0,0,0,.25.39,1,1,0,0,0,.63.22,1.07,1.07,0,0,0,.63-.23A.36.36,0,0,1,253,236a.28.28,0,0,1,0,.4,1.58,1.58,0,0,1-2.76-.85Zm.64-.38,1.77-.2a1,1,0,0,0-1-.56A.91.91,0,0,0,250.9,235.13Z" style="fill:#fff"></path><path d="M256.84,234.51,257,236a.34.34,0,0,1-.29.37.34.34,0,0,1-.37-.3l-.16-1.49a.64.64,0,0,0-.72-.55.63.63,0,0,0-.56.7l.17,1.48v.07a.34.34,0,0,1-.31.3.33.33,0,0,1-.36-.29l-.17-1.49-.11-1a.33.33,0,0,1,.3-.36.31.31,0,0,1,.32.16,1.29,1.29,0,0,1,2.09.88Z" style="fill:#fff"></path><path d="M258,235.32a.33.33,0,0,1,.47-.1,1.14,1.14,0,0,0,.71.2.86.86,0,0,0,.41-.17.23.23,0,0,0,.09-.2.11.11,0,0,0,0-.06.25.25,0,0,0-.09-.07,1.4,1.4,0,0,0-.52-.11h0a2.53,2.53,0,0,1-.56-.11,1,1,0,0,1-.47-.31.8.8,0,0,1-.15-.38.92.92,0,0,1,.29-.73,1.4,1.4,0,0,1,.75-.31,1.56,1.56,0,0,1,1,.24.34.34,0,0,1,.15.45.33.33,0,0,1-.45.13,1.18,1.18,0,0,0-.6-.16.63.63,0,0,0-.36.15.21.21,0,0,0-.09.16l0,0a.14.14,0,0,0,.08.06,1.27,1.27,0,0,0,.47.1h0a2.37,2.37,0,0,1,.6.12,1,1,0,0,1,.49.32.79.79,0,0,1,.16.4.92.92,0,0,1-.31.76,1.42,1.42,0,0,1-.78.34,1.82,1.82,0,0,1-1.16-.3A.35.35,0,0,1,258,235.32Z" style="fill:#fff"></path></g><path d="M348.64,195.12c6.7,13,21.41,39.59,18.56,50-3.74,13.73-26.31,29.85-32.13,34.35-2.54,2-16.55-14.14-15.92-17.51s24.13-24.15,25.34-26.41-5.54-24.11-7.15-36.42C335.3,183.64,343,184.11,348.64,195.12Z" style="fill:#f7a9a0"></path><path d="M313.37,268.77c.79-1.43.05-1.86-2.63-.72s-12.31,7.87-14.38,4.31,11.66-12.88,16.26-14.42,12.58-2.42,12.58-2.42C322.89,257.87,317.84,264.1,313.37,268.77Z" style="fill:#f7a9a0"></path><path d="M340.54,274.3c-6.74,6.39-14.75,14.74-25,17.09a5.17,5.17,0,0,1-3.38-.28c-4.56,1.13-6.46-.68-6.46-.68-4.57-.24-6.26-2.36-6.26-2.36s-5.36,1.27-6.67-1.85c-1.48-3.48,6.35-4.59,10.28-7.83,9-7.41,19.73-20.48,22.11-22.87Z" style="fill:#f7a9a0"></path><path d="M318,277.25a75.06,75.06,0,0,1-8.26,6.05A76.09,76.09,0,0,1,299.54,288a.09.09,0,0,0,0,.17,39.59,39.59,0,0,0,18.49-10.75C318.2,277.25,318.12,277.15,318,277.25Z" style="fill:#263238"></path><path d="M323.25,282c-2.73,1.92-7.56,5.28-17.54,8.28a0,0,0,0,0,0,.07,35.55,35.55,0,0,0,17.62-8.22C323.51,282,323.44,281.91,323.25,282Z" style="fill:#263238"></path><path d="M326,284.66c-4.78,3.1-8.19,4.45-13.83,6.42,0,0,0,.07,0,.06,6.64-1.56,8.88-2.88,13.93-6.33C326.34,284.69,326.22,284.54,326,284.66Z" style="fill:#263238"></path><path d="M339.27,216.12l22.36-.12s-11.53-21.72-16.72-27.15c-5.85-6.11-7.89-2-8.14,6S339.27,216.12,339.27,216.12Z" style="fill:#455a64"></path><path d="M340,212.07c2.84-.4,11.54-.4,13-.41.76,0,3.78.09,4.54.08.1,0,.08.15,0,.15-1.45,0-2.89.2-4.34.24s-10.29.35-13.17.05A.06.06,0,0,1,340,212.07Z" style="fill:#263238"></path><path d="M337.4,206.71c-.3-1.14-.6-2.28-.86-3.43,0,0,0,0,0,0,.26.83.49,1.66.72,2.5-.19-1.72-.34-3.45-.42-5.17,0,0,0,0,.05,0,.5,2.57.85,5.17,1.29,7.75s.82,5.08,1.2,7.62c.51.08,1,.15,1.53.2a.08.08,0,1,1,0,.15q-.84,0-1.68.12a.26.26,0,0,1-.3-.19C338.31,213.11,337.78,209.91,337.4,206.71Z" style="fill:#263238"></path><path d="M280,215.69c-4.17-.43-10.13-3.12-13.18-2.43a3.57,3.57,0,0,0-2.89,3.14s-2.49-2.4-5.15-1.32c-1.37.56-1.68,3.24-1.68,3.24a4.27,4.27,0,0,0-4.39-.73c-1.84.88-1.88,3.43-1.88,3.43s-2.81-.83-4.39.67c-3.21,3,2.65,19.52,9.63,19.9,3.25.18,1.6-3.77,1.6-3.77s3.74,5.11,7.17,4,1-6.12,1-6.12,3.67,4.92,7.11,3.39.26-6.16.26-6.16,3.79,2.78,6.15,1c3.91-2.92-4.08-7.89-4.51-11.82L280,218Z" style="fill:#f7a9a0"></path><path d="M273.59,214.23c4,.06,6.79-5.86,10.61-6.35,5.17-.67,2.39,6.41-4.16,10.1l-5.58,2Z" style="fill:#f7a9a0"></path><path d="M250.72,221.42s-.1,0-.09,0a30.34,30.34,0,0,0,7.05,16.62c.13.15.43,0,.31-.19A62.51,62.51,0,0,1,250.72,221.42Z" style="fill:#263238"></path><path d="M257,218.25c0-.07-.12,0-.12,0a28.44,28.44,0,0,0,8.83,17.65c.17.16.49.12.3-.08C262.78,232.55,258.42,223.72,257,218.25Z" style="fill:#263238"></path><path d="M273.62,233.12c-4.79-4.58-7.64-10.24-9.73-16.47,0-.08-.14,0-.13,0,.19,3.33,1.93,7.16,3.54,10a17.52,17.52,0,0,0,6.16,6.57C273.57,233.36,273.73,233.22,273.62,233.12Z" style="fill:#263238"></path></g><g id="freepik--speech-bubble--inject-75"><path d="M398.38,128.45a23.17,23.17,0,0,1-37,18.6l-11.35,2.89,4.72-10.57a23.17,23.17,0,1,1,43.6-10.92Z" style="fill:#fff"></path><path d="M398.38,128.45A23.3,23.3,0,0,1,395,140.61a26.29,26.29,0,0,1-1.83,2.63,26.91,26.91,0,0,1-2.22,2.31,22.89,22.89,0,0,1-14.48,6.21,19.23,19.23,0,0,1-3.22,0,23.34,23.34,0,0,1-12-4.43l.3.06-11.33,3-.88.23.37-.84,4.69-10.58v.42a23.46,23.46,0,0,1-.73-20.71,23.69,23.69,0,0,1,6.43-8.44,23.54,23.54,0,0,1,20-4.84,23.66,23.66,0,0,1,9.46,4.53A23.31,23.31,0,0,1,398.38,128.45Zm0,0a22.9,22.9,0,0,0-28.73-22.19,22.6,22.6,0,0,0-9.11,4.76,23.88,23.88,0,0,0-6.1,8.23,22.82,22.82,0,0,0,.77,19.9l.11.21-.1.21-4.76,10.55-.51-.6,11.37-2.82.17,0,.13.1a22.83,22.83,0,0,0,11.62,4.53,20.82,20.82,0,0,0,3.16.06,22.3,22.3,0,0,0,3.15-.34,22.82,22.82,0,0,0,6-2,21.55,21.55,0,0,0,5.25-3.57,26.67,26.67,0,0,0,2.22-2.29,24.89,24.89,0,0,0,1.84-2.6A23.22,23.22,0,0,0,398.38,128.45Z" style="fill:#263238"></path><polygon points="371.46 142.23 361.07 131.72 364.56 128.28 370.63 134.41 383.23 114.66 387.36 117.3 371.46 142.23" style="fill:#00BFA6"></polygon></g></svg>