<svg xmlns="http://www.w3.org/2000/svg" viewBox="0 0 500 500"><g id="freepik--Floor--inject-235"><path id="freepik--floor--inject-235" d="M420,446.33c-93.88,54.39-246.1,54.39-340,0C9.68,405.58-8,345.86,27.07,295.59H472.93C508,345.86,490.32,405.58,420,446.33Z" style="fill:#fafafa"></path></g><g id="freepik--Sunburst--inject-235"><path id="freepik--Background--inject-235" d="M23.8,179.73a272.11,272.11,0,0,0-11.55,45.13l237.61,70.72ZM222.35,14.16l27.51,281.42L277.37,14.16ZM117.67,54,249.86,295.58l-85-267.29A235,235,0,0,0,117.67,54ZM45.83,132.26l204,163.32L75.51,91.61A258.5,258.5,0,0,0,45.83,132.26Zm430.09,47.47L249.86,295.58l237.6-70.72A272.09,272.09,0,0,0,475.92,179.73ZM249.86,295.58h240.2q1-10.92,1.1-22.09Zm-240.21,0H249.86L8.55,273.49Q8.67,284.66,9.65,295.58Zm414.55-204-174.34,204,204-163.32A258.55,258.55,0,0,0,424.2,91.61ZM334.81,28.29,249.86,295.58,382,54A235.23,235.23,0,0,0,334.81,28.29Z" style="fill:#00BFA6;opacity:0.2"></path></g><g id="freepik--Shadow--inject-235"><ellipse id="freepik--shadow--inject-235" cx="250" cy="424.19" rx="93.69" ry="54.28" style="fill:#e6e6e6"></ellipse></g><g id="freepik--Character--inject-235"><g id="freepik--character--inject-235"><g id="freepik--Bottom--inject-235"><path d="M291.45,388.57c-.4-9.86,5.21-66.85,5.21-66.85l-33.36,14c3.08,24.83,8.09,44.1,8.27,58.27,0,0,8.41,8.44,13.1,13.83a106.24,106.24,0,0,0,13,13c3.62,2.89,11.8,4.8,13.37,2.41-5.69-6.6-12.35-13.91-16.5-21C292.56,399,291.72,395.37,291.45,388.57Z" style="fill:#ffa8a7"></path><path d="M321.92,430.94c.36.05.07,4.25-2.19,5.69-2.61,1.67-9.77,3.95-18.12,1.42s-12.44-6.07-15.28-9.65-6.8-8.63-10.5-10.15c-3.44-1.41-7-3.75-7.94-5.11s.28-6.57.28-6.57Z" style="fill:#263238"></path><path d="M271.39,390a1.65,1.65,0,0,0-1.06,1.52c-.16,1.95.5,3.87-.45,7.14A43,43,0,0,0,268,408.4c-.05,2.75,5.46,5.55,8.92,7.65s7.34,6,10.56,10.05,11.13,9,16.7,10c8.52,1.48,14.54-.09,16.89-3.06,2.91-3.68,1.71-6.27-7.15-12.62-1.68-1.21-7.4-6.32-9.33-8.15-5.23-4.95-10.09-11.46-11.45-19a3.87,3.87,0,0,0-1-2.39,3,3,0,0,0-1.88-.48,16.3,16.3,0,0,0-5,.75c-1.45.46-4.27.85-4.6,2.63a9.49,9.49,0,0,0,.18,2.47c0,.39.14,1.73-.21,1.9s-.94-.82-1.12-1.13c-.86-1.45-1.08-2.29-2.4-2.81s-4.88-1.13-5.59-2.73Z" style="fill:#37474f"></path><path d="M315.31,421.45c-12.54-1.06-18,6.39-19.55,11.3a27.58,27.58,0,0,0,8.39,3.34c8.52,1.48,14.89,0,17.24-3C324.13,429.62,323.38,426.35,315.31,421.45Z" style="fill:#fafafa"></path><path d="M296.75,418.65a.59.59,0,0,1-.36-.2.68.68,0,0,1,.1-.92c2.16-1.95,7.71-4.11,12.1-2.88a.61.61,0,0,1,.4.78.64.64,0,0,1-.78.46c-4.1-1.13-9.23,1.05-10.95,2.6A.6.6,0,0,1,296.75,418.65Z" style="fill:#f0f0f0"></path><path d="M292.07,414.53a.57.57,0,0,1-.35-.2.66.66,0,0,1,.09-.91c2.16-2,7.72-4.13,12.1-2.89a.61.61,0,0,1,.4.79.65.65,0,0,1-.78.46c-4.1-1.14-9.23,1-10.95,2.59A.58.58,0,0,1,292.07,414.53Z" style="fill:#f0f0f0"></path><path d="M287.88,410a.56.56,0,0,1-.36-.21.67.67,0,0,1,.1-.91c2.16-1.95,7.73-4.11,12.1-2.89a.62.62,0,0,1,.4.79.64.64,0,0,1-.78.46c-4.1-1.13-9.23,1.05-10.95,2.6A.63.63,0,0,1,287.88,410Z" style="fill:#f0f0f0"></path><path d="M283.78,405.5a.55.55,0,0,1-.34-.2.67.67,0,0,1,.08-.91c3-2.78,8.76-4,13.14-2.79a.61.61,0,0,1,.4.79.66.66,0,0,1-.78.46c-3.95-1.1-9.32,0-12,2.48A.64.64,0,0,1,283.78,405.5Z" style="fill:#f0f0f0"></path><path d="M231.7,340.73l-30.46-3.91c-1.42,19.08-.71,36.68-2.6,54.55-1.24,5.32-2.67,29.42-2.33,36.48.51,10.61,13,10.86,14.48,4.75s7-35.68,7.45-38.41C221.2,382.1,231.44,341.69,231.7,340.73Z" style="fill:#ffa8a7"></path><path d="M213.74,438.36c-.74,6.1-2,10.09-4.48,13.53s-6.86,4.27-11.15,2.92-9.69-4.55-10.61-9.92-.45-9,.88-14.59Z" style="fill:#263238"></path><path d="M198.64,391.37c-1.8,0-2.34,9.63-3.87,17.8-1.65,8.75-4.63,12.22-6.06,19.39-1.63,8.19-1.4,11.92,1.33,17.12s13.17,10.86,18.9,4.06c4.68-5.55,5.25-12,5.36-20.29.11-8.57,1.09-14.44,1.85-20.89.72-6.17,3.6-13.57,2.09-14.37-.18.9-.36,2.05-.54,2.94-.14.67-.53,4-1.53,4a11.48,11.48,0,0,1,.12-2.34,2.72,2.72,0,0,0-.37-2,3.44,3.44,0,0,0-1.94-1c-1.74-.46-7-1-8.81-1.32-.89-.14-1.79-.24-2.68-.29a7.63,7.63,0,0,0-2.29.15,1.54,1.54,0,0,0-1,.78,2.25,2.25,0,0,0-.15.93,6.93,6.93,0,0,1-.33,1.69c-.08.23-.28.52-.53.44s-.27-.31-.26-.52c.05-1,.23-1.71.35-2.87.05-.53.19-1.26.23-1.8S198.57,391.89,198.64,391.37Z" style="fill:#37474f"></path><path d="M187.92,433.31c-.62,5.12-.53,8.66,1.61,12.73,2.73,5.21,14,10.93,19.77,4.13,2.85-3.38,3.82-7.54,4.44-11.82C210.9,432.61,193.21,429,187.92,433.31Z" style="fill:#fafafa"></path><path d="M209.69,429a.57.57,0,0,1-.22-.07,27.43,27.43,0,0,0-15.37-2.58.67.67,0,0,1-.76-.53.62.62,0,0,1,.54-.73,28.48,28.48,0,0,1,16.24,2.73.64.64,0,0,1,.26.87A.66.66,0,0,1,209.69,429Z" style="fill:#f0f0f0"></path><path d="M194.91,420.25a.65.65,0,0,1-.53-.46.63.63,0,0,1,.46-.78c8.19-2.05,15.9,2.4,16.22,2.59a.61.61,0,0,1,.23.87.68.68,0,0,1-.91.21c-.08,0-7.56-4.35-15.18-2.44A.57.57,0,0,1,194.91,420.25Z" style="fill:#f0f0f0"></path><path d="M195.73,414.47a.68.68,0,0,1-.54-.45.64.64,0,0,1,.45-.79,21.58,21.58,0,0,1,16.56,2.57.62.62,0,0,1,.17.88.68.68,0,0,1-.93.15A20.56,20.56,0,0,0,196,414.46.72.72,0,0,1,195.73,414.47Z" style="fill:#f0f0f0"></path><path d="M196.67,408a.68.68,0,0,1-.53-.45.62.62,0,0,1,.44-.79c8.46-2.39,16.33,2.54,16.66,2.75a.62.62,0,0,1,.19.88.66.66,0,0,1-.92.17c-.08,0-7.68-4.8-15.54-2.58A.76.76,0,0,1,196.67,408Z" style="fill:#ebebeb"></path><path d="M230,167.22c-5.62,10-17.36,26.75-18.84,56.17-2.33,46.34-3.7,70.39-3.7,70.39-2.72,8.78-4.74,9.53-6.34,32.77-1.28,18.55-1.49,41.62-1.49,41.62s13.56,7.21,24.7,3.31c5.09-14.84,13.33-47.67,19.06-67.6,5.21-18.09,11-47.24,11-47.24l8.3,44.61a108.27,108.27,0,0,0-.84,29.27c1.37,12.41,6.17,37.05,6.17,37.05s15.11,5.53,24.84-1c0,0,4.9-53.45,5.33-68.45.65-22.51,1.23-60.18-.53-91.1-.67-11.82-4.79-31.85-6.26-39.83Z" style="fill:#37474f"></path><path d="M199.3,363.78c4.32,3,20.25,6.26,26.42,4.29l-2.41,6.77s-4,1.41-12.35.53-11.66-4.79-11.66-4.79Z" style="fill:#455a64"></path><path d="M267.33,364.89c4.95,2,20.2,1.69,25.87-1.61l-.54,7.75S290,373.41,281,373.92c-8.52.49-12.48-1.95-12.48-1.95Z" style="fill:#455a64"></path><path d="M254.34,256.64l6.27-36.39s19.64-1.36,27.07-7.84c0,0-9.57,12.2-22.92,13.61l-6.52,30.62,4.36,44.22Z" style="fill:#263238"></path></g><g id="freepik--Top--inject-235"><path id="freepik--Hair--inject-235" d="M220.83,77s1.31,9.88-2.05,18c-2.18,5.31-5.83,15-10,25.6-3.9,10-8.65,37.54,23.77,47.08,18.74,5.52,45.12.22,54-6.79,23.74-18.75,18.91-40.23-7.53-67.68-6.13-6.38-8.4-20.41-8.4-20.41Z" style="fill:#37474f"></path><path d="M269.28,105.73c10.4.42,13.12.49,30.17,6.53L318.38,119l23.8,11.6c.42,3.22,1.3,9.19-1.4,13.74-2.19,3.69-5.95,3.16-12.92,1.56-10.06-2.31-38.4-9.49-38.4-9.49Z" style="fill:#ffa8a7"></path><path d="M313,117.05c.85,12.64,2.47,15,7.33,20.42l-1-18.07-.92-.45Z" style="fill:#f28f8f"></path><path d="M315,121.89a27,27,0,0,0,4.44,14.37,26,26,0,0,0,14.21,10.32c3.66.89,8.42-.05,8.88-8.76.55-10.52-3.89-19.44-7.94-30.67-5.51-15.28-7-19-7.85-23.53-.54-2.89-.2-8.42-1.42-11.16a40.27,40.27,0,0,0-5.3-8.93c-2.34-3.12-4.44-1.1-4.79-.57-2.22-2.09-5-2-6.24-.15a5.3,5.3,0,0,0-5.52,2.93c-1.67-.43-4.08.68-4,2.86A6.21,6.21,0,0,0,300.64,71c-.14,1.38,2.68,6.85,1.76,8.62s-3.06,1.82-5.77,2.31c-2.88.53-5.57,2-6.2,4-.49,1.56.46,2.2,1.86,2.19,1.24,0,4.32-.65,6.68-.71,3.47-.09,4.81-.24,6.55.49a25.82,25.82,0,0,1,5.72,3c1.31,1.09,2.73,2.55,3.33,7.47S315,116.29,315,121.89Z" style="fill:#ffa8a7"></path><path d="M306.06,75.78a2.37,2.37,0,0,1-2.81-.42c.52,1,.89,1.63,1.26,2.19.58.86,1.72,1.61,2.84.53s.86-2.09.32-3.88A2.72,2.72,0,0,1,306.06,75.78Zm10.69-4.22a1.94,1.94,0,0,1-1.68-1.24c0,.13,0,.71.05,1.2,0,.19,0,.37,0,.51a0,0,0,0,1,0,0c0,.57-1.12,1.41-1.68,1.45s-1.53-.1-2.24-1.64a.37.37,0,0,1,0,.11,2.59,2.59,0,0,1-1.56,2.52,1.77,1.77,0,0,1-2-.27,8.33,8.33,0,0,0,1.39,2.52c1,1.19,2.4.06,2.73-.66a1.5,1.5,0,0,0,1,1.31c1.06.38,2-.51,2.25-2.62,0,0,0-.07,0-.11.61,1.83,2.35,1.66,2.88.52a21.82,21.82,0,0,0,1-4.92C318.88,71,318.05,71.62,316.75,71.56Z" style="fill:#f28f8f;opacity:0.5"></path><path d="M315.52,74.37v0l0,.09c.17.6.57,1.11,1.11,1.13a1,1,0,0,0,.74-.27,1.85,1.85,0,0,0,.45-.81,26.59,26.59,0,0,0,.91-4.31l0,.11h0l0-.06v0c.1-.82.15-1.69.33-2.52.09-.42.22-.83.34-1.23a3.11,3.11,0,0,0,.1-1.25,3,3,0,0,1,0,1.27c-.09.42-.19.82-.24,1.24-.13.83-.11,1.67-.16,2.53l0-.11h0l0,0v.07a26.32,26.32,0,0,1-.63,4.46,2.37,2.37,0,0,1-.57,1.14,1.74,1.74,0,0,1-1.26.56,1.85,1.85,0,0,1-1.31-.52,2.81,2.81,0,0,1-.71-1.11l0,.09v0Z" style="fill:#f28f8f"></path><path d="M321,67.36a3.37,3.37,0,0,1-.73,1.25,6.86,6.86,0,0,1-1.09,1l-.25-.42A4.56,4.56,0,0,0,321,67.36Z" style="fill:#f28f8f"></path><path d="M309,62.81A12.91,12.91,0,0,1,309.9,65c.24.74.47,1.49.66,2.24l.32,1.12.26,1.14.5,2.32v0l0,.16v0l.4,2.43.18,1.21a2.49,2.49,0,0,0,.28,1,1,1,0,0,0,.68.4.76.76,0,0,0,.7-.25,3.82,3.82,0,0,0,.75-2v-.17a21.37,21.37,0,0,0,.06-2.81V68.8c0-1,0-2,.05-2.94,0-.5.07-1,.12-1.48a3.49,3.49,0,0,1,.38-1.42,3.63,3.63,0,0,0-.17,1.43c0,.49,0,1,0,1.46l.2,2.93.21,2.93.07,1.48a9.5,9.5,0,0,1-.05,1.57v.06h0a4.46,4.46,0,0,1-1,2.55,1.72,1.72,0,0,1-1.53.56,2.17,2.17,0,0,1-.75-.27,1.81,1.81,0,0,1-.61-.59,3.19,3.19,0,0,1-.38-1.34l-.17-1.24L310.82,72v0h0v-.08l-.35-2.27-.17-1.15-.24-1.15A36.83,36.83,0,0,0,309,62.81Z" style="fill:#f28f8f"></path><path d="M303.5,65.73a32.42,32.42,0,0,1,4.05,6.8l.72,1.84a10.18,10.18,0,0,0,.79,1.7c.34.55.67,1,1.24.94a2.15,2.15,0,0,0,1.53-.93,2.2,2.2,0,0,1-1.46,1.4,1.55,1.55,0,0,1-1.15-.2,3.17,3.17,0,0,1-.78-.77,8.92,8.92,0,0,1-1-1.79l-.75-1.8c-.5-1.2-1.07-2.37-1.6-3.56S304,67,303.5,65.73Z" style="fill:#f28f8f"></path><path d="M307.6,74l.09.21h0a7.33,7.33,0,0,1,.53,2.18,2.54,2.54,0,0,1-1,2.06,1.7,1.7,0,0,1-1.16.39,2,2,0,0,1-1.13-.47,6.38,6.38,0,0,1-1.32-1.87l-2.2-3.86c-.36-.65-.73-1.29-1.08-2a6.81,6.81,0,0,1-.81-2.07,7.69,7.69,0,0,0,1,2l1.2,1.87c.81,1.24,1.55,2.55,2.29,3.81A6.75,6.75,0,0,0,305.22,78a1.37,1.37,0,0,0,1.78.11,2.19,2.19,0,0,0,1-1.75,8.55,8.55,0,0,0-.31-2.17h0Z" style="fill:#f28f8f"></path><path d="M312.75,76.81a12.76,12.76,0,0,1,3.54,3.44,10.1,10.1,0,0,1,1.87,4.44,9.8,9.8,0,0,0-2.25-4.14,12,12,0,0,0-3.63-2.89Z" style="fill:#f28f8f"></path><path d="M323.77,86.24c-1.44,1-3.3,1-4.6,1.83S315,90.8,312,89.47c-2.3-1-5.8-2.06-7.66-2h0a9.69,9.69,0,0,1,1.19.38,25.82,25.82,0,0,1,5.72,3c1.31,1.09,2.73,2.55,3.33,7.47,0,.28.07.61.1,1h0s.13-3.93,1.15-5.9,3.93-3.16,6.71-4.8S325.21,85.27,323.77,86.24Z" style="fill:#f28f8f"></path><path d="M249.8,106.72a147.88,147.88,0,0,0-21.7,4.52c-3.07,1.59-9.45,4.89-7.54,24.55.65,6.69,6.22,16.91,6,28.63-.14,8.07-5,13-9.81,28.84,15.62,16.62,72.21,16.87,79.77,2.79-1.88-21.15-6.07-22.65-4.1-42.58,0,0,4.09-8.86,3.4-14.47-1-8.22-2.89-11.06-10.92-19.89a83.07,83.07,0,0,0-15.62-13.38A133.77,133.77,0,0,0,249.8,106.72Z" style="fill:#00BFA6"></path><g id="freepik--Head--inject-235"><path d="M241.87,102.1c-2.51-2.14-6.35-3.46-12.26-8.26-8.23-6.67-16.88-28.8-5-33.84-1.14-17.76,23.89-24.54,35.08-22.36,32.59,6.36,19.13,27.63,19.13,27.63Z" style="fill:#37474f"></path><path d="M271.52,53.85c4.09,3.28,6.31,4.24,7.88,22,1.22,13.85-1.6,19.15-7.53,22.39-2.1,1.15-6.26,2.1-10.32,2.09l.66,6.48s7.48,8.68,7.4,19.81c-24.78-10.46-28.82-17.79-28.82-17.79L237.58,87c-.69,1.51-4.69,3.93-8.54.08-4.53-4.52-4.38-10.6-1.17-13.22s7.73-1.06,9.82,2.83c3.94,1.1,6.51-2.68,4.5-17.16C250.16,54.06,261.33,49.91,271.52,53.85Z" style="fill:#ffa8a7"></path><path d="M270.86,46.42c2.41,6.17,1.46,16.85-7.27,21.12,1.5-4.21.52-11.75.52-11.75s-4.95,15.69-23.45,15l-2.82-16.58C246.08,46.86,259.47,40.52,270.86,46.42Z" style="fill:#37474f"></path><path d="M261.55,100.3c-12.13-.44-19-5-20.76-9.56,0,0,.89,5.74,5.07,8.37,5.07,3.18,16,4.4,16,4.4Z" style="fill:#f28f8f"></path><path d="M266.21,87.41l-8.46-2a4.14,4.14,0,0,0,3.05,5.2A4.58,4.58,0,0,0,266.21,87.41Z" style="fill:#b16668"></path><path d="M262.68,90.63a4.42,4.42,0,0,1-1.88,0,4.12,4.12,0,0,1-3.1-3.15A5,5,0,0,1,262.68,90.63Z" style="fill:#f28f8f"></path><path d="M252.25,72.72a2.37,2.37,0,1,0,2.06-2.62A2.36,2.36,0,0,0,252.25,72.72Z" style="fill:#263238"></path><path d="M269.33,70.78a2.37,2.37,0,1,0,2.06-2.61A2.35,2.35,0,0,0,269.33,70.78Z" style="fill:#263238"></path><polygon points="261.91 68.58 265.07 84.14 272.19 80.27 261.91 68.58" style="fill:#f28f8f"></polygon><path d="M275.47,65.8l-5.61-1.2a2.76,2.76,0,0,1,3.31-2.23A3,3,0,0,1,275.47,65.8Z" style="fill:#263238"></path><path d="M249.67,68.05l5-2.92A2.81,2.81,0,0,0,250.8,64,3,3,0,0,0,249.67,68.05Z" style="fill:#263238"></path><path d="M253.66,79.24c.11,2-2,3.77-4.78,3.92s-5.07-1.35-5.18-3.37,2-3.77,4.78-3.93S253.55,77.22,253.66,79.24Z" style="fill:#f28f8f"></path><path d="M283.39,73.86c.71,1.89-.79,4.21-3.36,5.19s-5.25.25-6-1.64.78-4.21,3.36-5.19S282.67,72,283.39,73.86Z" style="fill:#f28f8f"></path></g><g id="freepik--Arm--inject-235"><path d="M202.83,223.39c-1.32-2-3.14-3.79-3.45-6.24a4.07,4.07,0,0,1,1.1-3.49,1.75,1.75,0,0,0,.53-.59,1.57,1.57,0,0,0,.06-.65,4.45,4.45,0,0,1,.57-2.64,2.79,2.79,0,0,1,1.92-1.19,6.54,6.54,0,0,1,.63-4c.76-1.45,2.52-2.43,3.3-.57a14.8,14.8,0,0,1,.8,2.86,31.37,31.37,0,0,1,.46,7.37c-.12,2.57-.58,9.83-4.55,9.58C203.89,223.78,203,223.67,202.83,223.39Z" style="fill:#f28f8f"></path><path d="M230.52,110.73c-12.78,2-16.58,4.16-24.64,14.74-9.26,12.15-21.78,26.56-25.49,32.17-4.58,6.94-5.75,9.7,1.06,18.84C185,181.18,190,186.92,195,193.3c4,5,8.83,10.47,12.62,15.64a4.13,4.13,0,0,1,.78,4.33,26.55,26.55,0,0,0-1.25,2.91,26,26,0,0,0-.27,4.06c-.14,1.35-.79,2.83-2.1,3.21a3.91,3.91,0,0,1-1.95,0,13.78,13.78,0,0,0,3.39,2.55,5.7,5.7,0,0,0,4.14.48c1.31-.41,2.41-1.44,3.78-1.64.73-.1,1.49.05,2.23,0a3.57,3.57,0,0,0,2-.94c.89-.83,1.4-2.13,2.54-2.55a16.06,16.06,0,0,1,1.71-.29,3.67,3.67,0,0,0,2.43-2.4,10.05,10.05,0,0,0,.43-3.5,86.87,86.87,0,0,0-.53-9.54,9.21,9.21,0,0,0-1.07-3.07c-.55-1.12-1.07-2.27-1.69-3.36-4.21-7.38-17.37-31.88-17.37-31.88l23.08-23.34S240,123.4,230.52,110.73Z" style="fill:#ffa8a7"></path><path d="M204.86,167.22c-5.26,3.81-12.44,3.11-15,2.56,5.75,5,16.23-.35,16.23-.35Z" style="fill:#f28f8f"></path></g></g></g></g><g id="freepik--Sparkles--inject-235"><g id="freepik--sparkles--inject-235"><path d="M177.47,368a.71.71,0,0,1-.81-.52l-.16-.66a3.56,3.56,0,0,0-3.81-2.68l-.68.07a.7.7,0,0,1-.24-1.38l.66-.17h0a3.56,3.56,0,0,0,2.68-3.81l-.07-.68a.7.7,0,0,1,1.38-.24l.17.66a3.55,3.55,0,0,0,3.81,2.68l.67-.07a.71.71,0,0,1,.76.58.69.69,0,0,1-.52.8l-.66.17a3.56,3.56,0,0,0-2.67,3.81l.06.68A.7.7,0,0,1,177.47,368Zm-2.72-5a5,5,0,0,1,2.1,1.48,5,5,0,0,1,1.48-2.11,5,5,0,0,1-2.1-1.48A5,5,0,0,1,174.75,363Z" style="fill:#e0e0e0"></path><path d="M157,346.53a.7.7,0,0,1-.8-.52l-.17-.66a3.56,3.56,0,0,0-3.81-2.68l-.68.07a.71.71,0,0,1-.76-.58.7.7,0,0,1,.52-.8l.66-.17h0a3.56,3.56,0,0,0,2.68-3.81l-.07-.68a.72.72,0,0,1,.58-.76.71.71,0,0,1,.8.52l.17.66a3.55,3.55,0,0,0,3.81,2.68l.68-.07a.72.72,0,0,1,.76.58.71.71,0,0,1-.52.8l-.66.17a3.55,3.55,0,0,0-2.68,3.81l.07.68A.71.71,0,0,1,157,346.53Zm-2.72-5a5,5,0,0,1,2.11,1.48,5,5,0,0,1,1.48-2.11,5,5,0,0,1-2.11-1.48A5,5,0,0,1,154.28,341.55Z" style="fill:#e0e0e0"></path><path d="M322,319.67a.71.71,0,0,1-.79-.54l-.15-.67a3.54,3.54,0,0,0-3.74-2.76l-.68.05a.72.72,0,0,1-.75-.6.71.71,0,0,1,.54-.79l.67-.15h0a3.57,3.57,0,0,0,2.77-3.75l-.05-.67a.7.7,0,0,1,1.38-.21l.15.66a3.55,3.55,0,0,0,3.75,2.77l.68-.05a.71.71,0,0,1,.74.6.7.7,0,0,1-.54.79l-.66.15a3.56,3.56,0,0,0-2.77,3.74l.05.68A.7.7,0,0,1,322,319.67Zm-2.59-5.05a5.06,5.06,0,0,1,2.07,1.53,5,5,0,0,1,1.53-2.07,4.77,4.77,0,0,1-2.07-1.53A4.93,4.93,0,0,1,319.39,314.62Z" style="fill:#e0e0e0"></path><path d="M338.45,344.1a.7.7,0,0,1-.41-.86l.21-.65a3.57,3.57,0,0,0-1.85-4.28l-.61-.3a.71.71,0,0,1-.35-.89.7.7,0,0,1,.86-.41l.66.2h0a3.55,3.55,0,0,0,4.27-1.84l.3-.61a.71.71,0,0,1,.89-.35.7.7,0,0,1,.41.86l-.2.65a3.56,3.56,0,0,0,1.84,4.28l.62.3a.7.7,0,0,1-.52,1.3l-.65-.2a3.55,3.55,0,0,0-4.28,1.84l-.3.61A.7.7,0,0,1,338.45,344.1Zm.3-5.67a5,5,0,0,1,1,2.37,4.78,4.78,0,0,1,2.36-1,4.94,4.94,0,0,1-1-2.37A4.85,4.85,0,0,1,338.75,338.43Z" style="fill:#e0e0e0"></path><path d="M177.5,326.45a1.09,1.09,0,0,1-1.23-.8l-.25-1a5.47,5.47,0,0,0-5.84-4.11l-1,.11a1.09,1.09,0,0,1-1.17-.89,1.08,1.08,0,0,1,.8-1.23l1-.26h0a5.44,5.44,0,0,0,4.1-5.84l-.1-1a1.08,1.08,0,0,1,2.12-.37l.25,1a5.46,5.46,0,0,0,5.85,4.1l1-.1a1.08,1.08,0,0,1,1.16.89,1.06,1.06,0,0,1-.8,1.22l-1,.26a5.44,5.44,0,0,0-4.1,5.84l.1,1A1.09,1.09,0,0,1,177.5,326.45Zm-4.16-7.64a7.59,7.59,0,0,1,3.23,2.27,7.57,7.57,0,0,1,2.26-3.23,7.56,7.56,0,0,1-3.22-2.27A7.53,7.53,0,0,1,173.34,318.81Z" style="fill:#e0e0e0"></path><path d="M317.5,368.08a1.07,1.07,0,0,1-.89-1.16l.1-1.05a5.46,5.46,0,0,0-4.14-5.82l-1-.25a1.08,1.08,0,0,1,.36-2.12l1,.1h0a5.45,5.45,0,0,0,5.82-4.13l.26-1a1.07,1.07,0,0,1,2.11.36l-.09,1a5.45,5.45,0,0,0,4.13,5.82l1,.25a1.08,1.08,0,0,1-.36,2.12l-1-.1a5.46,5.46,0,0,0-5.82,4.13l-.26,1A1.08,1.08,0,0,1,317.5,368.08Zm-1.37-8.59a7.52,7.52,0,0,1,2.28,3.22,7.54,7.54,0,0,1,3.22-2.29,7.55,7.55,0,0,1-2.28-3.21A7.52,7.52,0,0,1,316.13,359.49Z" style="fill:#e0e0e0"></path></g></g><g id="freepik--Hearts--inject-235"><g id="freepik--Heart--inject-235"><path id="freepik--heart--inject-235" d="M315.65,180.92l2.86,3.44,4.31-1.15c3.21-.85,11.71-3.11,13.94-10.1a7,7,0,0,0-13-5.11,7,7,0,0,0-13.6-3.38C307.9,171.61,313.53,178.38,315.65,180.92Z" style="fill:#00BFA6"></path><path id="freepik--heart--inject-235" d="M315.65,180.92l2.86,3.44,4.31-1.15c3.21-.85,11.71-3.11,13.94-10.1a7,7,0,0,0-13-5.11,7,7,0,0,0-13.6-3.38C307.9,171.61,313.53,178.38,315.65,180.92Z" style="fill:#fff;opacity:0.25"></path></g><g id="freepik--heart--inject-235"><path id="freepik--heart--inject-235" d="M192.25,97.25l4.85,1.21,3.13-3.88c2.33-2.89,8.5-10.55,5.89-18.33a7.84,7.84,0,0,0-15.13,4A7.85,7.85,0,0,0,176.5,86.2C179.11,94,188.66,96.36,192.25,97.25Z" style="fill:#00BFA6"></path><path id="freepik--heart--inject-235" d="M192.25,97.25l4.85,1.21,3.13-3.88c2.33-2.89,8.5-10.55,5.89-18.33a7.84,7.84,0,0,0-15.13,4A7.85,7.85,0,0,0,176.5,86.2C179.11,94,188.66,96.36,192.25,97.25Z" style="fill:#fff;opacity:0.35000000000000003"></path></g><path id="freepik--heart--inject-235" d="M178.56,124.18l2.89-.25,1-2.72c.73-2,2.68-7.38-.21-11.15a4.55,4.55,0,0,0-7.55,5,4.55,4.55,0,0,0-6.84,6C170.74,124.85,176.42,124.36,178.56,124.18Z" style="fill:#00BFA6"></path></g><g id="freepik--speech-bubbles--inject-235"><g id="freepik--speech-bubble--inject-235"><g id="freepik--Bubble--inject-235"><path d="M111.12,257.3c-8.52-4.84-20.24-4.1-33.18,3.37-26,15-47.14,51.59-47.14,81.66,0,15,5.27,25.56,13.79,30.49l16.11,9.27C69.22,387,81,386.28,94,378.78c26-15,47.15-51.59,47.15-81.66,0-15-5.25-25.52-13.74-30.46C123.84,264.59,114.72,259.34,111.12,257.3Z" style="fill:#00BFA6"></path><path d="M32.53,326.7a76,76,0,0,0-1.73,15.63c0,15,5.27,25.56,13.79,30.49l16.11,9.27C69.22,387,81,386.28,94,378.78a75.4,75.4,0,0,0,12.64-9.3Z" style="opacity:0.15"></path><path d="M127.35,343.55c8.52-14.77,13.79-31.41,13.79-46.43,0-30.06-21.11-42.25-47.15-27.21S46.85,321.5,46.85,351.56,68,393.81,94,378.78a81,81,0,0,0,18.41-14.94l19.24,3.52a3.17,3.17,0,0,0,3.51-4.29Z" style="fill:#00BFA6"></path><path d="M127.35,343.55c8.52-14.77,13.79-31.41,13.79-46.43,0-30.06-21.11-42.25-47.15-27.21S46.85,321.5,46.85,351.56,68,393.81,94,378.78a81,81,0,0,0,18.41-14.94l19.24,3.52a3.17,3.17,0,0,0,3.51-4.29Z" style="fill:#fff;opacity:0.35000000000000003"></path></g><path d="M116.84,316.55a13.17,13.17,0,0,0,2.88-7.69c0-2.67-1-3.78-2-4.14a13.25,13.25,0,0,0,1.46-5.79c0-2.72-1.54-5.87-4.83-4l-12.29,7.08c.8-5.56.45-9.84-1.14-14.06-1.46-3.87-5.14-2.67-7.12-1a4.12,4.12,0,0,0-1.75,3.07c0,.38,0,1.15.08,2.14.1,2.37.34,7.91,0,9.36S88,312.85,85.57,319a2.11,2.11,0,0,0-.15.72l0,33.36c0,.57.31.86.71.72l.14-.07L108.36,341A12.87,12.87,0,0,0,114.14,331a13.83,13.83,0,0,0-.32-3,14.86,14.86,0,0,0,3.51-8.09A9.3,9.3,0,0,0,116.84,316.55Zm-4.13,10a1.82,1.82,0,0,0-.71.93,1.58,1.58,0,0,0-.07,1.12,10,10,0,0,1,.5,3.3,8.91,8.91,0,0,1-4.07,6.8L87.1,351l0-31.87c1.08-2.74,6-15.41,6.6-17.61.48-1.84.34-6,.15-10.4,0-.72-.06-1.31-.07-1.71A5,5,0,0,1,96.14,288a2.55,2.55,0,0,1,3.25,1.76c1.58,4.2,1.83,8.46.82,14.23a1,1,0,0,0,.15.89.49.49,0,0,0,.67.05l13.37-7.69c2.35-1.35,3.12,1.2,3.12,2.66a9.41,9.41,0,0,1-1.76,5.24,2,2,0,0,0-.4,1.38c0,.42.3.65.64.56.08,0,2-.47,2,2.75a8.39,8.39,0,0,1-2.58,5.77,2.11,2.11,0,0,0-.62,1.09,1.18,1.18,0,0,0,.14,1s.67.76.67,3.13C115.62,322.23,114.05,325.83,112.71,326.59Zm-30.62-7-9.64,5.54a1.76,1.76,0,0,0-.6.68,2.14,2.14,0,0,0-.25.95l0,38.83c0,.56.31.86.71.71l.14-.06,9.64-5.55a1.69,1.69,0,0,0,.6-.68,2.11,2.11,0,0,0,.25-.95l0-38.83C82.94,319.56,82.57,319.25,82.09,319.54Zm-4.84,37.93c-1,.58-1.82,0-1.82-1.37a4.38,4.38,0,0,1,1.82-3.48c1-.58,1.82,0,1.82,1.38A4.36,4.36,0,0,1,77.25,357.47Z" style="fill:#fafafa"></path></g><g id="freepik--speech-bubble--inject-235"><g id="freepik--bubble--inject-235"><path d="M388.88,257.3c8.52-4.84,20.24-4.1,33.18,3.37,26,15,47.14,51.59,47.14,81.66,0,15-5.27,25.56-13.79,30.49l-16.11,9.27C430.78,387,419,386.28,406,378.78c-26-15-47.15-51.59-47.15-81.66,0-15,5.25-25.52,13.74-30.46C376.16,264.59,385.28,259.34,388.88,257.3Z" style="fill:#00BFA6"></path><path d="M467.47,326.7a76,76,0,0,1,1.73,15.63c0,15-5.27,25.56-13.79,30.49l-16.11,9.27C430.78,387,419,386.28,406,378.78a75.4,75.4,0,0,1-12.64-9.3Z" style="opacity:0.15"></path><path d="M372.65,343.55c-8.52-14.77-13.79-31.41-13.79-46.43,0-30.06,21.11-42.25,47.15-27.21s47.14,51.59,47.14,81.65S432,393.81,406,378.78a81,81,0,0,1-18.41-14.94l-19.24,3.52a3.17,3.17,0,0,1-3.51-4.29Z" style="fill:#00BFA6"></path><path d="M372.65,343.55c-8.52-14.77-13.79-31.41-13.79-46.43,0-30.06,21.11-42.25,47.15-27.21s47.14,51.59,47.14,81.65S432,393.81,406,378.78a81,81,0,0,1-18.41-14.94l-19.24,3.52a3.17,3.17,0,0,1-3.51-4.29Z" style="fill:#fff;opacity:0.35000000000000003"></path></g><g id="freepik--Star--inject-235"><path d="M421.66,364.92a3.24,3.24,0,0,1-2.43-1.45l-13.76-17.6-13.59,1.68a2.77,2.77,0,0,1-2.3-1A5.84,5.84,0,0,1,388,342l2.64-19.06L379.34,301.8c-.94-1.77-1-3.71-.06-4.73a2,2,0,0,1,2.26-.48l15,5.75,6.69-14.23h0a2,2,0,0,1,1.94-1.2c1.38.1,2.75,1.52,3.34,3.45l6.95,22.8,15.51,12a6,6,0,0,1,2.1,4.49,2.7,2.7,0,0,1-1,2.21l-11,7.92,2.62,21.94c.19,1.52-.31,2.68-1.32,3.09A1.93,1.93,0,0,1,421.66,364.92Zm-15.82-20.8a.84.84,0,0,1,.67.33l14.06,18c.55.69,1,.84,1.19.77s.39-.48.29-1.32l-2.69-22.43a.84.84,0,0,1,.35-.79l11.37-8.22a1.12,1.12,0,0,0,.28-.86,4.29,4.29,0,0,0-1.44-3.12L414.2,314.34a.87.87,0,0,1-.3-.43l-7-23.06c-.43-1.41-1.34-2.2-1.83-2.24-.08,0-.17,0-.28.23l-7,14.94a.85.85,0,0,1-1.07.43l-15.73-6c-.27-.1-.34,0-.38,0a3,3,0,0,0,.29,2.81l11.38,21.36a.86.86,0,0,1,.1.52l-2.69,19.33a4.18,4.18,0,0,0,1.16,3.17,1.3,1.3,0,0,0,.88.49l14.06-1.74Z" style="fill:#fafafa"></path></g></g></g></svg>